# 3ds Max Wavefront OBJ Exporter v0.97b - (c)2007 guruware
# File Created: 23.02.2017 13:08:05

mtllib SM_CompDetl_compDetl_keyboard.mtl

#
# object SM_CompDetl_compDetl_keyboard
#

v  -0.2057 0.0143 0.1247
v  -0.0525 0.0143 0.1247
v  -0.0340 0.0160 0.1015
v  -0.2242 0.0160 0.1015
v  -0.2242 0.0320 -0.1171
v  -0.2295 0.0324 -0.1226
v  -0.3670 0.0324 -0.1226
v  -0.0340 0.0320 -0.1171
v  0.1167 0.0324 -0.1226
v  -0.0287 0.0324 -0.1226
v  -0.2242 0.0042 -0.1191
v  -0.3834 0.0034 -0.0734
v  -0.3670 0.0044 -0.1247
v  -0.0340 0.0042 -0.1191
v  0.1167 0.0044 -0.1247
v  -0.0340 0.0012 0.1004
v  -0.0525 0.0003 0.1237
v  -0.2057 0.0003 0.1237
v  -0.2242 0.0012 0.1004
v  -0.2295 0.0044 -0.1247
v  -0.0287 0.0044 -0.1247
v  0.3361 0.0016 -0.1219
v  0.3840 0.0034 -0.0734
v  0.1258 0.0044 -0.1217
v  0.3452 0.0016 -0.1249
v  0.1258 0.0013 0.0975
v  0.1167 0.0012 0.1004
v  -0.3834 0.0027 0.0700
v  0.3675 0.0012 0.1004
v  0.3452 0.0012 0.1004
v  0.3840 0.0027 0.0700
v  0.3840 0.0020 0.0855
v  -0.3834 0.0040 -0.1097
v  -0.3670 0.0012 0.1004
v  -0.3670 0.0160 0.1015
v  -0.0331 0.0100 -0.1167
v  -0.2251 0.0100 -0.1167
v  -0.2251 0.0258 -0.1155
v  -0.0331 0.0258 -0.1155
v  0.1167 0.0160 0.1015
v  -0.2303 0.0103 -0.1223
v  -0.2303 0.0262 -0.1211
v  -0.3662 0.0103 -0.1222
v  -0.3662 0.0262 -0.1211
v  0.1163 0.0103 -0.1221
v  -0.0279 0.0103 -0.1223
v  -0.0279 0.0262 -0.1211
v  0.1164 0.0262 -0.1209
v  0.3365 0.0080 -0.1193
v  0.1254 0.0102 -0.1192
v  0.1254 0.0260 -0.1180
v  0.3365 0.0255 -0.1180
v  0.3361 0.0013 0.0975
v  0.3361 0.0162 0.0986
v  0.1258 0.0162 0.0986
v  0.3455 0.0257 -0.1210
v  0.3456 0.0080 -0.1223
v  0.3452 0.0160 0.1015
v  0.3675 0.0160 0.1015
v  0.3665 0.0080 -0.1225
v  0.3665 0.0257 -0.1212
v  0.3840 0.0171 0.0866
v  0.3819 0.0070 -0.0999
v  0.3819 0.0242 -0.0985
v  -0.3814 0.0099 -0.1084
v  -0.3815 0.0253 -0.1073
v  -0.3834 0.0020 0.0855
v  -0.3834 0.0171 0.0866
v  0.3840 0.0094 -0.0542
v  -0.3834 0.0094 -0.0542
v  0.3675 0.0016 -0.1249
v  0.3840 0.0006 -0.1009
v  -0.3834 0.0313 -0.1077
v  -0.3834 0.0273 -0.0529
v  0.1258 0.0322 -0.1197
v  0.3675 0.0324 -0.1226
v  0.3452 0.0324 -0.1226
v  0.3840 0.0306 -0.0987
v  0.3840 0.0074 0.0610
v  -0.3834 0.0074 0.0610
v  -0.2242 0.0087 -0.1188
v  -0.0340 0.0087 -0.1188
v  -0.0340 0.0275 -0.1174
v  -0.2242 0.0275 -0.1174
v  -0.2295 0.0089 -0.1243
v  -0.2295 0.0279 -0.1230
v  -0.3670 0.0089 -0.1243
v  -0.3670 0.0279 -0.1230
v  -0.0287 0.0089 -0.1243
v  0.1167 0.0089 -0.1243
v  0.1167 0.0279 -0.1230
v  -0.0287 0.0279 -0.1230
v  0.1258 0.0089 -0.1214
v  0.3361 0.0066 -0.1216
v  0.3361 0.0322 -0.1197
v  0.3361 0.0272 -0.1201
v  0.1258 0.0277 -0.1200
v  0.3452 0.0066 -0.1245
v  0.3452 0.0273 -0.1230
v  0.3675 0.0066 -0.1245
v  0.3675 0.0273 -0.1230
v  0.3840 0.0055 -0.1006
v  0.3840 0.0074 -0.0722
v  0.3840 0.0257 -0.0991
v  0.3840 0.0244 -0.0681
v  -0.3834 0.0084 -0.1094
v  -0.3834 0.0269 -0.1080
v  -0.3834 0.0121 -0.0540
v  0.3840 0.0121 -0.0540
v  0.3840 0.0246 -0.0531
v  -0.3834 0.0074 -0.0722
v  -0.3834 0.0244 -0.0681
v  -0.3834 0.0246 -0.0531
v  -0.3813 0.0228 -0.0681
v  0.3818 0.0228 -0.0681
v  0.3818 0.0089 -0.0725
v  -0.3813 0.0089 -0.0724
# 117 vertices

vn 0.0000 0.9973 0.0731
vn -0.0006 -0.9998 -0.0182
vn 0.0000 -0.9999 -0.0162
vn 0.0009 -1.0000 -0.0096
vn 0.0000 -0.9993 -0.0377
vn 0.0000 -0.9995 -0.0331
vn 0.0000 -0.9993 0.0379
vn -0.0132 -0.9874 -0.1579
vn 0.0087 -0.9995 0.0294
vn -0.0003 -0.9991 -0.0433
vn 0.0000 -0.9988 -0.0488
vn 0.0029 -0.9989 -0.0472
vn 0.0078 -0.9998 -0.0156
vn 0.0000 -0.0731 0.9973
vn 0.0000 0.0743 -0.9972
vn -0.7820 -0.0455 0.6216
vn 0.7820 -0.0455 0.6216
vn 0.7251 0.0506 -0.6868
vn 0.7245 0.0501 -0.6875
vn -0.0002 0.0741 -0.9973
vn -0.0002 0.0739 -0.9973
vn 0.0011 0.0739 -0.9973
vn 0.0010 0.0734 -0.9973
vn -0.7251 0.0505 -0.6868
vn -0.7245 0.0502 -0.6875
vn 0.0000 0.0734 -0.9973
vn -0.3076 0.0696 -0.9490
vn -0.3072 0.0693 -0.9491
vn -0.3073 -0.0695 0.9491
vn 0.3073 -0.0695 0.9491
vn 0.3071 0.0696 -0.9491
vn 0.3073 0.0697 -0.9490
vn -0.0109 0.0734 -0.9972
vn -0.0105 0.0738 -0.9972
vn 0.6734 -0.0540 0.7373
vn 0.8269 0.0414 -0.5608
vn 0.8281 0.0446 -0.5588
vn -0.6717 0.0544 -0.7388
vn -0.6723 0.0555 -0.7382
vn -0.6736 -0.0540 0.7371
vn 0.0000 -0.9547 0.2977
vn 0.0016 -1.0000 -0.0024
vn 0.0000 -0.9994 0.0359
vn -0.2080 -0.9729 0.1013
vn 0.0000 -0.9998 -0.0178
vn 1.0000 0.0000 -0.0000
vn 0.0000 0.0731 -0.9973
vn 0.7246 0.0504 -0.6873
vn -0.7246 0.0504 -0.6873
vn -0.3073 0.0695 -0.9491
vn 0.3073 0.0695 -0.9491
vn 0.8248 0.0413 -0.5640
vn -0.6736 0.0540 -0.7371
vn -1.0000 0.0001 -0.0000
vn -1.0000 0.0000 -0.0000
vn -0.5756 -0.8176 0.0142
vn -0.6122 -0.7891 -0.0502
vn -0.5756 -0.8162 -0.0490
vn -0.4101 -0.7629 -0.4999
vn -0.4126 -0.7592 -0.5033
vn 0.0000 -0.7477 -0.6640
vn -0.0001 -0.7525 -0.6586
vn 0.4445 -0.7603 -0.4737
vn 0.4441 -0.7606 -0.4736
vn 0.0000 -0.7479 -0.6638
vn -0.4442 -0.7605 -0.4735
vn -0.4443 -0.7603 -0.4738
vn 0.0000 -0.7700 -0.6381
vn 0.0006 -0.7476 -0.6642
vn 0.1817 -0.7717 -0.6094
vn 0.1818 -0.7717 -0.6095
vn -0.0020 -0.7701 -0.6379
vn -0.0020 -0.7698 -0.6383
vn -0.1818 -0.7717 -0.6095
vn -0.1818 -0.7716 -0.6096
vn 0.0000 -0.7354 -0.6777
vn -0.0061 -0.7704 -0.6375
vn 0.4891 -0.7807 -0.3889
vn 0.5196 -0.7533 -0.4032
vn 0.5756 -0.8169 -0.0361
vn 0.5983 -0.8006 -0.0330
vn 0.5756 -0.8176 0.0142
vn 0.5757 0.7919 -0.2036
vn 0.5691 0.8204 -0.0553
vn 0.5756 0.8159 -0.0557
vn 0.5006 0.8104 -0.3045
vn 0.4912 0.8192 -0.2960
vn 0.0000 0.8541 -0.5201
vn -0.0068 0.8228 -0.5683
vn -0.1629 0.8541 -0.4939
vn -0.1633 0.8537 -0.4944
vn 0.0088 0.8546 -0.5192
vn 0.0087 0.8534 -0.5212
vn 0.1631 0.8538 -0.4944
vn 0.1631 0.8535 -0.4948
vn 0.0000 0.8348 -0.5505
vn 0.0006 0.8542 -0.5200
vn -0.4235 0.8271 -0.3694
vn -0.4246 0.8263 -0.3700
vn 0.0000 0.8341 -0.5516
vn 0.4243 0.8264 -0.3702
vn 0.4239 0.8271 -0.3692
vn 0.0000 0.8384 -0.5451
vn -0.0001 0.8348 -0.5506
vn -0.4014 0.8174 -0.4131
vn -0.3836 0.8333 -0.3980
vn -0.5756 0.8174 0.0222
vn -0.5986 0.8007 0.0238
vn -0.5757 0.7919 -0.2036
vn 0.0000 -0.9988 -0.0495
vn 0.0015 -0.9989 -0.0469
vn -0.0029 -0.9989 -0.0472
vn 0.0000 -0.8888 -0.4583
vn 0.9990 0.0134 -0.0422
vn 1.0000 -0.0002 0.0036
vn 1.0000 -0.0004 0.0035
vn 0.9969 0.0164 -0.0776
vn -0.9973 0.0124 -0.0727
vn -0.9978 0.0049 -0.0668
vn 0.9973 0.0125 -0.0726
vn 0.9978 0.0049 -0.0668
vn -1.0000 -0.0010 0.0048
vn -1.0000 -0.0009 0.0049
vn -0.9990 0.0134 -0.0431
vn -0.9970 0.0158 -0.0764
# 125 vertex normals

vt 0.6513 0.2332 0.0000
vt 0.6513 0.4319 0.0000
vt 0.6212 0.4559 0.0000
vt 0.6212 0.2092 0.0000
vt 0.3370 0.2092 0.0000
vt 0.3298 0.2024 0.0000
vt 0.3298 0.0240 0.0000
vt 0.3370 0.4559 0.0000
vt 0.3298 0.6513 0.0000
vt 0.3298 0.4627 0.0000
vt 0.3190 0.2086 0.0000
vt 0.2598 0.0022 0.0000
vt 0.3262 0.0234 0.0000
vt 0.3190 0.4551 0.0000
vt 0.3262 0.6505 0.0000
vt 0.0349 0.4551 0.0000
vt 0.0048 0.4311 0.0000
vt 0.0048 0.2326 0.0000
vt 0.0349 0.2086 0.0000
vt 0.3262 0.2017 0.0000
vt 0.3262 0.4620 0.0000
vt 0.3224 0.9349 0.0000
vt 0.2598 0.9969 0.0000
vt 0.3224 0.6622 0.0000
vt 0.3262 0.9467 0.0000
vt 0.0387 0.6622 0.0000
vt 0.0349 0.6505 0.0000
vt 0.0743 0.0022 0.0000
vt 0.0349 0.9756 0.0000
vt 0.0349 0.9467 0.0000
vt 0.0743 0.9969 0.0000
vt 0.0543 0.9969 0.0000
vt 0.3068 0.0022 0.0000
vt 0.6489 0.6967 0.0000
vt 0.6489 0.8794 0.0000
vt 0.6300 0.8794 0.0000
vt 0.6300 0.6967 0.0000
vt 0.6846 0.5296 0.0000
vt 0.6846 0.7795 0.0000
vt 0.6644 0.7794 0.0000
vt 0.6644 0.5296 0.0000
vt 0.0224 0.4491 0.0000
vt 0.0224 0.6440 0.0000
vt 0.0033 0.6440 0.0000
vt 0.0033 0.4491 0.0000
vt 0.6469 0.9523 0.0000
vt 0.6303 0.9523 0.0000
vt 0.6312 0.9190 0.0000
vt 0.6469 0.9190 0.0000
vt 0.6484 0.4607 0.0000
vt 0.6484 0.6617 0.0000
vt 0.6301 0.6617 0.0000
vt 0.6301 0.4607 0.0000
vt 0.6323 0.9152 0.0000
vt 0.6314 0.8820 0.0000
vt 0.6479 0.8820 0.0000
vt 0.6479 0.9152 0.0000
vt 0.6852 0.7894 0.0000
vt 0.6641 0.7894 0.0000
vt 0.6851 0.9675 0.0000
vt 0.6642 0.9675 0.0000
vt 0.6851 0.3310 0.0000
vt 0.6852 0.5196 0.0000
vt 0.6641 0.5197 0.0000
vt 0.6642 0.3310 0.0000
vt 0.6877 0.0433 0.0000
vt 0.6848 0.3185 0.0000
vt 0.6642 0.3185 0.0000
vt 0.6649 0.0434 0.0000
vt 0.0225 0.6564 0.0000
vt 0.0225 0.9284 0.0000
vt 0.0033 0.9284 0.0000
vt 0.0033 0.6564 0.0000
vt 0.6648 0.0310 0.0000
vt 0.6880 0.0309 0.0000
vt 0.0224 0.9408 0.0000
vt 0.0033 0.9408 0.0000
vt 0.0224 0.9697 0.0000
vt 0.0033 0.9697 0.0000
vt 0.6881 0.0035 0.0000
vt 0.6648 0.0035 0.0000
vt 0.0229 0.9984 0.0000
vt 0.0033 0.9984 0.0000
vt 0.7580 0.0402 0.0000
vt 0.7573 0.0057 0.0000
vt 0.7794 0.0056 0.0000
vt 0.7796 0.0402 0.0000
vt 0.6843 0.9947 0.0000
vt 0.6641 0.9948 0.0000
vt 0.6494 0.6683 0.0000
vt 0.6300 0.6683 0.0000
vt 0.2356 0.9969 0.0000
vt 0.2356 0.0022 0.0000
vt 0.3262 0.9756 0.0000
vt 0.2952 0.9969 0.0000
vt 0.3492 0.0027 0.0000
vt 0.4205 0.0027 0.0000
vt 0.6212 0.6513 0.0000
vt 0.6174 0.6630 0.0000
vt 0.3336 0.6630 0.0000
vt 0.6212 0.9476 0.0000
vt 0.6212 0.9766 0.0000
vt 0.3298 0.9766 0.0000
vt 0.3298 0.9476 0.0000
vt 0.6018 0.9978 0.0000
vt 0.3608 0.9978 0.0000
vt 0.0865 0.9969 0.0000
vt 0.0865 0.0022 0.0000
vt 0.7696 0.2725 0.0000
vt 0.7691 0.2531 0.0000
vt 0.7885 0.2725 0.0000
vt 0.6936 0.5304 0.0000
vt 0.6936 0.7786 0.0000
vt 0.6877 0.7789 0.0000
vt 0.6877 0.5300 0.0000
vt 0.6554 0.7786 0.0000
vt 0.6554 0.5304 0.0000
vt 0.6613 0.5300 0.0000
vt 0.6613 0.7789 0.0000
vt 0.6945 0.7885 0.0000
vt 0.6886 0.7889 0.0000
vt 0.6548 0.7885 0.0000
vt 0.6606 0.7889 0.0000
vt 0.6944 0.9678 0.0000
vt 0.6885 0.9677 0.0000
vt 0.6548 0.9678 0.0000
vt 0.6608 0.9677 0.0000
vt 0.6945 0.3306 0.0000
vt 0.6945 0.5204 0.0000
vt 0.6886 0.5201 0.0000
vt 0.6886 0.3307 0.0000
vt 0.6547 0.5204 0.0000
vt 0.6548 0.3306 0.0000
vt 0.6607 0.3307 0.0000
vt 0.6606 0.5201 0.0000
vt 0.6977 0.0436 0.0000
vt 0.6941 0.3182 0.0000
vt 0.6882 0.3183 0.0000
vt 0.6911 0.0435 0.0000
vt 0.6549 0.3182 0.0000
vt 0.6549 0.0436 0.0000
vt 0.6615 0.0435 0.0000
vt 0.6608 0.3183 0.0000
vt 0.6915 0.0311 0.0000
vt 0.6980 0.0311 0.0000
vt 0.6549 0.0311 0.0000
vt 0.6614 0.0311 0.0000
vt 0.6980 0.0020 0.0000
vt 0.6913 0.0020 0.0000
vt 0.6549 0.0020 0.0000
vt 0.6616 0.0020 0.0000
vt 0.7549 0.0748 0.0000
vt 0.7487 0.0406 0.0000
vt 0.7549 0.0405 0.0000
vt 0.7599 0.0756 0.0000
vt 0.7827 0.0401 0.0000
vt 0.7888 0.0399 0.0000
vt 0.7839 0.0786 0.0000
vt 0.7478 0.0042 0.0000
vt 0.7542 0.0043 0.0000
vt 0.7888 0.0037 0.0000
vt 0.7825 0.0039 0.0000
vt 0.6934 0.9966 0.0000
vt 0.6876 0.9964 0.0000
vt 0.6549 0.9966 0.0000
vt 0.6607 0.9964 0.0000
vt 0.7218 0.2019 0.0000
vt 0.7179 0.2019 0.0000
vt 0.7271 0.0428 0.0000
vt 0.7660 0.0975 0.0000
vt 0.7693 0.0974 0.0000
vt 0.7852 0.0973 0.0000
vt 0.7104 0.2780 0.0000
vt 0.7044 0.2779 0.0000
vt 0.7074 0.2278 0.0000
vt 0.7128 0.2265 0.0000
vt 0.7385 0.2227 0.0000
vt 0.7438 0.2781 0.0000
vt 0.7380 0.2781 0.0000
vt 0.7396 0.2020 0.0000
vt 0.7435 0.2020 0.0000
vt 0.7352 0.2227 0.0000
vt 0.7348 0.2769 0.0000
vt 0.7808 0.0786 0.0000
vt 0.7631 0.0746 0.0000
vt 0.7160 0.2272 0.0000
vt 0.7136 0.2769 0.0000
vt 0.6212 0.0240 0.0000
vt 0.6174 0.9358 0.0000
vt 0.3336 0.9358 0.0000
vt 0.7217 0.0298 0.0000
vt 0.7222 0.0084 0.0000
vt 0.7432 0.0084 0.0000
vt 0.0349 0.0234 0.0000
vt 0.0387 0.9349 0.0000
vt 0.0543 0.0022 0.0000
vt 0.7740 0.2414 0.0000
vt 0.6018 0.0027 0.0000
# 198 texture coords

g SM_CompDetl_compDetl_keyboard
usemtl default
s off
f 1/1/1 2/2/1 3/3/1 
f 3/3/1 4/4/1 1/1/1 
f 5/5/1 6/6/1 7/7/1 
f 8/8/1 9/9/1 10/10/1 
f 11/11/2 12/12/2 13/13/2 
f 14/14/3 12/12/3 11/11/3 
f 15/15/4 12/12/4 14/14/4 
f 16/16/5 17/17/5 18/18/5 
f 18/18/5 19/19/5 16/16/5 
f 13/13/6 20/20/6 11/11/6 
f 21/21/6 15/15/6 14/14/6 
f 22/22/7 23/23/7 12/12/7 
f 12/12/8 24/24/8 22/22/8 
f 22/22/9 25/25/9 23/23/9 
f 26/26/10 27/27/10 28/28/10 
f 29/29/11 30/30/11 31/31/11 
f 32/32/12 29/29/12 31/31/12 
f 33/33/13 13/13/13 12/12/13 
f 34/34/14 19/35/14 4/36/14 
f 4/36/14 35/37/14 34/34/14 
f 36/38/15 37/39/15 38/40/15 
f 38/40/15 39/41/15 36/38/15 
f 16/42/14 27/43/14 40/44/14 
f 40/44/14 3/45/14 16/42/14 
f 4/46/16 19/47/16 18/48/16 
f 18/48/16 1/49/16 4/46/16 
f 18/50/14 17/51/14 2/52/14 
f 2/52/14 1/53/14 18/50/14 
f 17/54/17 16/55/17 3/56/17 
f 3/56/17 2/57/17 17/54/17 
f 37/39/18 41/58/18 42/59/18 
f 42/59/19 38/40/19 37/39/19 
f 41/58/20 43/60/20 44/61/20 
f 44/61/21 42/59/21 41/58/21 
f 45/62/22 46/63/22 47/64/22 
f 47/64/23 48/65/23 45/62/23 
f 47/64/24 46/63/24 36/38/24 
f 36/38/25 39/41/25 47/64/25 
f 49/66/26 50/67/26 51/68/26 
f 51/68/26 52/69/26 49/66/26 
f 26/70/14 53/71/14 54/72/14 
f 54/72/14 55/73/14 26/70/14 
f 56/74/27 57/75/27 49/66/27 
f 49/66/28 52/69/28 56/74/28 
f 53/71/29 30/76/29 58/77/29 
f 58/77/29 54/72/29 53/71/29 
f 27/43/30 26/70/30 55/73/30 
f 55/73/30 40/44/30 27/43/30 
f 50/67/31 45/62/31 48/65/31 
f 48/65/32 51/68/32 50/67/32 
f 30/76/14 29/78/14 59/79/14 
f 59/79/14 58/77/14 30/76/14 
f 60/80/33 57/75/33 56/74/33 
f 56/74/34 61/81/34 60/80/34 
f 29/78/35 32/82/35 62/83/35 
f 62/83/35 59/79/35 29/78/35 
f 63/84/36 60/85/36 61/86/36 
f 61/86/37 64/87/37 63/84/37 
f 44/61/38 43/60/38 65/88/38 
f 65/88/39 66/89/39 44/61/39 
f 67/90/40 34/34/40 35/37/40 
f 35/37/40 68/91/40 67/90/40 
f 69/92/41 70/93/41 12/12/41 
f 12/12/41 23/23/41 69/92/41 
f 12/12/42 15/15/42 24/24/42 
f 23/23/43 25/25/43 71/94/43 
f 23/23/44 71/94/44 72/95/44 
f 7/7/1 73/96/1 74/97/1 
f 40/98/1 55/99/1 75/100/1 
f 75/100/1 9/9/1 40/98/1 
f 58/101/1 59/102/1 76/103/1 
f 76/103/1 77/104/1 58/101/1 
f 59/102/1 62/105/1 78/106/1 
f 78/106/1 76/103/1 59/102/1 
f 79/107/45 80/108/45 70/93/45 
f 70/93/45 69/92/45 79/107/45 
f 32/109/46 31/110/46 62/111/46 
f 14/112/47 11/113/47 81/114/47 
f 81/114/47 82/115/47 14/112/47 
f 5/116/47 8/117/47 83/118/47 
f 83/118/47 84/119/47 5/116/47 
f 11/113/48 20/120/48 85/121/48 
f 85/121/48 81/114/48 11/113/48 
f 6/122/48 5/116/48 84/119/48 
f 84/119/48 86/123/48 6/122/48 
f 20/120/47 13/124/47 87/125/47 
f 87/125/47 85/121/47 20/120/47 
f 7/126/47 6/122/47 86/123/47 
f 86/123/47 88/127/47 7/126/47 
f 15/128/47 21/129/47 89/130/47 
f 89/130/47 90/131/47 15/128/47 
f 10/132/47 9/133/47 91/134/47 
f 91/134/47 92/135/47 10/132/47 
f 89/130/49 21/129/49 14/112/49 
f 14/112/49 82/115/49 89/130/49 
f 8/117/49 10/132/49 92/135/49 
f 92/135/49 83/118/49 8/117/49 
f 22/136/47 24/137/47 93/138/47 
f 93/138/47 94/139/47 22/136/47 
f 75/140/47 95/141/47 96/142/47 
f 96/142/47 97/143/47 75/140/47 
f 98/144/50 25/145/50 22/136/50 
f 22/136/50 94/139/50 98/144/50 
f 95/141/50 77/146/50 99/147/50 
f 99/147/50 96/142/50 95/141/50 
f 24/137/51 15/128/51 90/131/51 
f 90/131/51 93/138/51 24/137/51 
f 9/133/51 75/140/51 97/143/51 
f 97/143/51 91/134/51 9/133/51 
f 71/148/47 25/145/47 98/144/47 
f 98/144/47 100/149/47 71/148/47 
f 77/146/47 76/150/47 101/151/47 
f 101/151/47 99/147/47 77/146/47 
f 23/152/46 72/153/46 102/154/46 
f 102/154/46 103/155/46 23/152/46 
f 104/156/46 78/157/46 105/158/46 
f 72/153/52 71/159/52 100/160/52 
f 100/160/52 102/154/52 72/153/52 
f 76/161/52 78/157/52 104/156/52 
f 104/156/52 101/162/52 76/161/52 
f 87/125/53 13/124/53 33/163/53 
f 33/163/53 106/164/53 87/125/53 
f 73/165/53 7/126/53 88/127/53 
f 88/127/53 107/166/53 73/165/53 
f 108/167/54 70/168/54 80/169/54 
f 69/170/46 23/152/46 103/155/46 
f 103/155/46 109/171/46 69/170/46 
f 105/158/46 78/157/46 110/172/46 
f 106/173/55 33/174/55 12/175/55 
f 12/175/55 111/176/55 106/173/55 
f 112/177/55 73/178/55 107/179/55 
f 111/176/55 12/175/55 70/168/55 
f 70/168/54 108/167/54 111/176/54 
f 113/180/55 74/181/55 73/178/55 
f 73/178/55 112/177/55 113/180/55 
f 110/172/46 78/157/46 62/111/46 
f 113/180/56 112/177/56 114/182/56 
f 112/177/57 107/179/57 66/183/57 
f 66/183/58 114/182/58 112/177/58 
f 107/166/59 88/127/59 44/61/59 
f 44/61/60 66/89/60 107/166/60 
f 88/127/61 86/123/61 42/59/61 
f 42/59/62 44/61/62 88/127/62 
f 86/123/63 84/119/63 38/40/63 
f 38/40/64 42/59/64 86/123/64 
f 84/119/65 83/118/65 39/41/65 
f 39/41/65 38/40/65 84/119/65 
f 83/118/66 92/135/66 47/64/66 
f 47/64/67 39/41/67 83/118/67 
f 92/135/68 91/134/68 48/65/68 
f 48/65/69 47/64/69 92/135/69 
f 91/134/70 97/143/70 51/68/70 
f 51/68/71 48/65/71 91/134/71 
f 97/143/72 96/142/72 52/69/72 
f 52/69/73 51/68/73 97/143/73 
f 96/142/74 99/147/74 56/74/74 
f 56/74/75 52/69/75 96/142/75 
f 99/147/76 101/151/76 61/81/76 
f 61/81/77 56/74/77 99/147/77 
f 101/162/78 104/156/78 64/87/78 
f 64/87/79 61/86/79 101/162/79 
f 104/156/80 105/158/80 115/184/80 
f 115/184/81 64/87/81 104/156/81 
f 105/158/82 110/172/82 115/184/82 
f 109/171/83 103/155/83 116/185/83 
f 103/155/84 102/154/84 63/84/84 
f 63/84/85 116/185/85 103/155/85 
f 102/154/86 100/160/86 60/85/86 
f 60/85/87 63/84/87 102/154/87 
f 100/149/88 98/144/88 57/75/88 
f 57/75/89 60/80/89 100/149/89 
f 98/144/90 94/139/90 49/66/90 
f 49/66/91 57/75/91 98/144/91 
f 94/139/92 93/138/92 50/67/92 
f 50/67/93 49/66/93 94/139/93 
f 93/138/94 90/131/94 45/62/94 
f 45/62/95 50/67/95 93/138/95 
f 90/131/96 89/130/96 46/63/96 
f 46/63/97 45/62/97 90/131/97 
f 89/130/98 82/115/98 36/38/98 
f 36/38/99 46/63/99 89/130/99 
f 82/115/100 81/114/100 37/39/100 
f 37/39/100 36/38/100 82/115/100 
f 81/114/101 85/121/101 41/58/101 
f 41/58/102 37/39/102 81/114/102 
f 85/121/103 87/125/103 43/60/103 
f 43/60/104 41/58/104 85/121/104 
f 87/125/105 106/164/105 65/88/105 
f 65/88/106 43/60/106 87/125/106 
f 106/173/107 111/176/107 117/186/107 
f 117/186/108 65/187/108 106/173/108 
f 111/176/109 108/167/109 117/186/109 
f 5/5/1 7/7/1 35/188/1 
f 35/188/1 4/4/1 5/5/1 
f 8/8/1 5/5/1 4/4/1 
f 4/4/1 3/3/1 8/8/1 
f 9/9/1 8/8/1 3/3/1 
f 3/3/1 40/98/1 9/9/1 
f 54/189/1 95/190/1 75/100/1 
f 75/100/1 55/99/1 54/189/1 
f 77/104/1 95/190/1 54/189/1 
f 54/189/1 58/101/1 77/104/1 
f 28/191/55 67/192/55 68/193/55 
f 28/28/11 19/19/11 34/194/11 
f 28/28/11 16/16/11 19/19/11 
f 28/28/11 27/27/11 16/16/11 
f 53/195/110 26/26/110 28/28/110 
f 28/28/110 31/31/110 53/195/110 
f 31/31/111 30/30/111 53/195/111 
f 28/28/112 34/194/112 67/196/112 
f 31/110/46 79/197/46 62/111/46 
f 80/169/55 28/191/55 68/193/55 
f 31/31/113 28/28/113 80/108/113 
f 80/108/113 79/107/113 31/31/113 
f 7/7/1 74/97/1 68/198/1 
f 68/198/1 35/188/1 7/7/1 
f 68/193/55 74/181/55 113/180/55 
f 79/197/46 69/170/46 109/171/46 
s 1
f 116/185/114 63/84/115 64/87/116 
f 64/87/116 115/184/117 116/185/114 
f 108/167/118 80/169/55 68/193/55 
f 68/193/55 113/180/119 108/167/118 
f 109/171/120 116/185/114 115/184/117 
f 115/184/117 110/172/121 109/171/120 
f 66/183/122 65/187/123 117/186/124 
f 117/186/124 114/182/125 66/183/122 
f 114/182/125 117/186/124 108/167/118 
f 108/167/118 113/180/119 114/182/125 
f 109/171/120 110/172/121 62/111/46 
f 62/111/46 79/197/46 109/171/120 
# 0 polygons - 230 triangles

