# 3ds Max Wavefront OBJ Exporter v0.97b - (c)2007 guruware
# File Created: 23.02.2017 13:14:18

mtllib SM_Cupdrink01.mtl

#
# object Cupdrink01
#

v  -0.0461 0.0056 -0.0231
v  -0.0516 0.0056 0.0010
v  -0.0452 0.0056 0.0249
v  -0.0284 0.0056 0.0430
v  -0.0052 0.0056 0.0513
v  -0.0072 0.0056 -0.0511
v  -0.0301 0.0056 -0.0419
v  0.0503 0.0056 0.0113
v  0.0193 0.0056 0.0479
v  0.0393 0.0056 0.0334
v  0.0498 0.0056 -0.0133
v  0.0379 0.0056 -0.0350
v  0.0173 0.0056 -0.0486
v  0.0184 0.0006 -0.0515
v  0.0402 0.0006 -0.0371
v  0.0528 0.0006 -0.0141
v  -0.0320 0.0006 -0.0444
v  -0.0077 0.0006 -0.0541
v  -0.0547 0.0006 0.0011
v  -0.0489 0.0006 -0.0244
v  0.0204 0.0006 0.0507
v  0.0533 0.0006 0.0120
v  0.0417 0.0006 0.0354
v  -0.0055 0.0006 0.0544
v  -0.0302 0.0006 0.0456
v  -0.0479 0.0006 0.0264
v  0.0526 0.0403 -0.0104
v  0.0526 0.0476 -0.0089
v  0.0596 0.0398 -0.0060
v  0.0526 0.0241 -0.0089
v  0.0582 0.0314 -0.0069
v  0.0683 0.0359 -0.0060
v  0.0581 0.0259 -0.0060
v  0.0581 0.0259 0.0035
v  0.0682 0.0313 -0.0069
v  0.0779 0.0377 -0.0060
v  0.0793 0.0334 -0.0069
v  0.0881 0.0450 -0.0060
v  0.0917 0.0422 -0.0069
v  0.0954 0.0561 -0.0060
v  0.0988 0.0549 -0.0069
v  0.1022 0.0537 -0.0060
v  0.1030 0.0721 -0.0069
v  0.0945 0.0395 -0.0060
v  0.0810 0.0292 -0.0060
v  0.0680 0.0257 -0.0060
v  0.0680 0.0257 0.0035
v  0.0810 0.0292 0.0035
v  0.0682 0.0313 0.0044
v  0.0793 0.0334 0.0044
v  0.0945 0.0395 0.0035
v  0.1022 0.0537 0.0035
v  0.1066 0.0721 -0.0060
v  0.1066 0.0721 0.0035
v  0.0582 0.0314 0.0044
v  0.0596 0.0398 0.0035
v  0.0683 0.0359 0.0035
v  0.0779 0.0377 0.0035
v  0.0917 0.0422 0.0044
v  0.0881 0.0450 0.0035
v  0.0988 0.0549 0.0044
v  0.0954 0.0561 0.0035
v  0.0526 0.0476 0.0064
v  0.0526 0.0403 0.0079
v  0.0526 0.0241 0.0064
v  0.0516 0.1245 0.0092
v  0.0518 0.1043 0.0070
v  0.0585 0.1127 0.0045
v  0.0518 0.1043 -0.0095
v  0.0585 0.1127 -0.0070
v  0.0698 0.1179 -0.0067
v  0.0698 0.1179 0.0042
v  0.0806 0.1182 -0.0060
v  0.0806 0.1182 0.0035
v  0.0913 0.1113 -0.0060
v  0.0913 0.1113 0.0035
v  0.0954 0.1035 -0.0060
v  0.0954 0.1035 0.0035
v  0.1030 0.0721 0.0044
v  0.0994 0.0721 0.0035
v  0.1026 0.0887 0.0044
v  0.0990 0.0881 0.0035
v  0.0988 0.1047 0.0044
v  0.0937 0.1140 0.0044
v  0.1062 0.0894 0.0035
v  0.1022 0.1059 0.0035
v  0.1062 0.0894 -0.0060
v  0.1022 0.1059 -0.0060
v  0.0960 0.1168 -0.0060
v  0.0960 0.1168 0.0035
v  0.0853 0.1247 -0.0060
v  0.0832 0.1218 -0.0069
v  0.0937 0.1140 -0.0069
v  0.0988 0.1047 -0.0069
v  0.1026 0.0887 -0.0069
v  0.0994 0.0721 -0.0060
v  0.0990 0.0881 -0.0060
v  0.0695 0.1230 -0.0081
v  0.0567 0.1245 -0.0086
v  0.0516 0.1245 -0.0117
v  0.0567 0.1298 -0.0070
v  0.0516 0.1311 -0.0095
v  0.0516 0.1311 0.0070
v  0.0567 0.1298 0.0045
v  0.0698 0.1283 -0.0067
v  0.0698 0.1283 0.0042
v  0.0853 0.1247 0.0035
v  0.0832 0.1218 0.0044
v  0.0695 0.1230 0.0056
v  0.0567 0.1245 0.0060
v  0.0498 0.1465 -0.0133
v  0.0379 0.1465 -0.0350
v  0.0525 0.1483 -0.0141
v  0.0173 0.1465 -0.0486
v  0.0399 0.1483 -0.0368
v  0.0552 0.1463 -0.0148
v  0.0420 0.0035 -0.0388
v  0.0552 0.0035 -0.0148
v  0.0420 0.1463 -0.0388
v  0.0183 0.1483 -0.0512
v  -0.0072 0.1465 -0.0511
v  -0.0334 0.0035 -0.0464
v  -0.0511 0.0035 -0.0256
v  -0.0511 0.1463 -0.0256
v  -0.0334 0.1463 -0.0464
v  -0.0080 0.0035 -0.0566
v  -0.0080 0.1463 -0.0566
v  0.0192 0.0035 -0.0539
v  0.0192 0.1463 -0.0539
v  -0.0076 0.1483 -0.0538
v  -0.0318 0.1483 -0.0441
v  -0.0486 0.1483 -0.0243
v  -0.0543 0.1483 0.0011
v  -0.0572 0.1463 0.0011
v  -0.0476 0.1483 0.0262
v  -0.0501 0.1463 0.0276
v  -0.0300 0.1483 0.0453
v  -0.0301 0.1465 -0.0419
v  -0.0461 0.1465 -0.0231
v  -0.0516 0.1465 0.0010
v  -0.0452 0.1465 0.0249
v  -0.0284 0.1465 0.0430
v  -0.0052 0.1465 0.0513
v  0.0193 0.1465 0.0479
v  0.0393 0.1465 0.0334
v  0.0503 0.1465 0.0113
v  0.0530 0.1483 0.0119
v  -0.0055 0.1483 0.0541
v  0.0203 0.1483 0.0504
v  0.0414 0.1483 0.0352
v  0.0435 0.1463 0.0371
v  -0.0315 0.1463 0.0477
v  -0.0058 0.1463 0.0569
v  0.0213 0.1463 0.0530
v  0.0213 0.0035 0.0530
v  0.0435 0.0035 0.0371
v  0.0558 0.1463 0.0126
v  0.0558 0.0035 0.0126
v  -0.0058 0.0035 0.0569
v  -0.0315 0.0035 0.0477
v  -0.0501 0.0035 0.0276
v  -0.0572 0.0035 0.0011
# 162 vertices

vn 0.0000 1.0000 -0.0000
vn 0.0000 -1.0000 -0.0000
vn 0.2716 -0.6859 0.6751
vn -0.0473 -0.8825 0.4679
vn -0.4013 -0.6859 0.6070
vn 0.5129 0.0666 -0.8559
vn 0.7582 0.5300 -0.3797
vn 0.6010 0.5411 -0.5882
vn 0.4931 -0.6211 -0.6092
vn 0.2650 -0.0513 -0.9629
vn 0.0628 0.6983 -0.7130
vn 0.2774 -0.7606 -0.5870
vn 0.2774 -0.7607 0.5868
vn 0.0013 0.0022 -1.0000
vn -0.2884 0.6727 -0.6814
vn 0.0132 -0.0195 -0.9997
vn -0.5311 0.5121 -0.6750
vn 0.0346 -0.0248 -0.9991
vn -0.6963 0.2993 -0.6524
vn 0.0183 -0.0068 -0.9998
vn 0.7511 -0.2891 -0.5935
vn 0.0201 -0.0040 -0.9998
vn 0.6153 -0.5283 -0.5851
vn 0.3498 -0.7205 -0.5987
vn 0.0902 -0.7793 -0.6202
vn 0.0921 -0.7784 0.6210
vn 0.3483 -0.7195 0.6009
vn 0.0141 -0.0099 0.9999
vn 0.0138 -0.0229 0.9996
vn 0.6137 -0.5287 0.5864
vn 0.7507 -0.2893 0.5939
vn 0.8012 -0.0831 -0.5926
vn 0.8011 -0.0832 0.5928
vn 0.2586 -0.0561 0.9644
vn 0.5958 0.5480 0.5871
vn 0.0849 0.7061 0.7030
vn -0.2880 0.6731 0.6812
vn 0.0348 -0.0300 0.9989
vn -0.5349 0.5099 0.6737
vn 0.0220 -0.0060 0.9997
vn -0.6962 0.3046 0.6500
vn 0.7583 0.5300 0.3797
vn 0.5130 0.0666 0.8558
vn 0.4931 -0.6211 0.6092
vn 0.4967 0.0993 0.8622
vn 0.7748 -0.5075 0.3770
vn 0.5835 -0.5393 0.6072
vn 0.7747 -0.5076 -0.3770
vn 0.5834 -0.5393 -0.6072
vn 0.2071 -0.7382 -0.6420
vn 0.2088 -0.7374 0.6424
vn -0.1605 -0.7207 -0.6744
vn -0.1634 -0.7181 0.6765
vn -0.5517 -0.4968 -0.6699
vn -0.5538 -0.4957 0.6690
vn -0.7184 -0.2677 -0.6420
vn -0.7185 -0.2693 0.6413
vn 0.0206 -0.0042 0.9998
vn -0.7604 0.0869 0.6436
vn 0.0158 0.0015 0.9999
vn -0.7640 -0.0979 0.6377
vn 0.0192 0.0090 0.9998
vn 0.0322 0.0190 0.9993
vn 0.7943 0.1053 0.5984
vn 0.7499 0.2964 0.5915
vn 0.7943 0.1053 -0.5983
vn 0.7505 0.2959 -0.5910
vn 0.6072 0.5431 -0.5800
vn 0.6075 0.5423 0.5804
vn 0.3554 0.7368 -0.5752
vn 0.0530 0.0345 -0.9980
vn 0.0307 0.0185 -0.9994
vn 0.0178 0.0083 -0.9998
vn 0.0155 0.0015 -0.9999
vn -0.7602 0.0866 -0.6439
vn -0.7639 -0.0980 -0.6378
vn 0.0808 0.0096 -0.9967
vn 0.3100 0.1056 -0.9448
vn 0.4967 0.0993 -0.8622
vn 0.2882 0.8040 -0.5202
vn 0.4465 0.6897 -0.5700
vn 0.4467 0.6895 0.5701
vn 0.2904 0.8027 0.5208
vn 0.1567 0.7867 -0.5971
vn 0.1555 0.7854 0.5992
vn 0.3535 0.7369 0.5761
vn 0.0494 0.0380 0.9981
vn 0.0816 0.0115 0.9966
vn 0.3123 0.1072 0.9439
vn -0.7351 0.0000 0.6780
vn -0.9660 0.0000 0.2587
vn -0.8340 0.5046 0.2233
vn -0.3358 0.0000 0.9419
vn -0.6347 0.5045 0.5854
vn 0.0948 0.9952 -0.0254
vn 0.1404 0.0000 0.9901
vn -0.2899 0.5045 0.8133
vn 0.0720 0.9952 -0.0664
vn 0.8700 0.4346 -0.2330
vn 0.7365 -0.6470 -0.1972
vn 0.5604 -0.6472 -0.5168
vn 0.6942 -0.3288 -0.6403
vn 0.9123 -0.3287 -0.2443
vn 0.6620 0.4347 -0.6105
vn 0.0329 0.9952 -0.0923
vn 0.1212 0.5045 0.8548
vn 0.5844 0.0000 0.8115
vn -0.5519 -0.3287 -0.7664
vn -0.8449 -0.3287 -0.4221
vn -0.8057 0.4346 -0.4025
vn -0.5263 0.4346 -0.7308
vn -0.1326 -0.3288 -0.9350
vn -0.1264 0.4347 -0.8917
vn 0.3172 -0.3288 -0.8896
vn 0.3024 0.4347 -0.8483
vn -0.0138 0.9952 -0.0971
vn -0.0574 0.9952 -0.0797
vn -0.0878 0.9952 -0.0439
vn -0.0980 0.9952 0.0020
vn -0.9004 0.4347 0.0180
vn -0.0858 0.9952 0.0472
vn -0.7889 0.4347 0.4344
vn -0.0541 0.9952 0.0818
vn 0.5045 0.5046 0.7006
vn 0.7724 0.5045 0.3859
vn 0.8633 0.5045 -0.0173
vn 0.7563 0.5045 -0.4165
vn 0.4761 0.5046 -0.7202
vn 0.8946 0.0000 0.4469
vn 0.9998 0.0000 -0.0200
vn 0.8760 0.0000 -0.4824
vn 0.5515 0.0000 -0.8342
vn 0.1007 0.0000 -0.9949
vn 0.0869 0.5046 -0.8590
vn -0.3732 0.0000 -0.9277
vn -0.3223 0.5045 -0.8010
vn -0.7616 0.0000 -0.6480
vn -0.6576 0.5045 -0.5595
vn -0.9755 0.0000 -0.2198
vn -0.8423 0.5045 -0.1898
vn 0.0955 0.9952 0.0215
vn -0.0099 0.9952 0.0976
vn 0.0366 0.9952 0.0909
vn 0.0747 0.9952 0.0635
vn 0.6859 0.4347 0.5836
vn -0.4967 0.4347 0.7512
vn -0.0906 0.4347 0.8960
vn 0.3361 0.4347 0.8355
vn 0.3525 -0.3288 0.8761
vn 0.7193 -0.3288 0.6120
vn 0.8785 0.4347 0.1980
vn 0.9213 -0.3289 0.2076
vn 0.5806 -0.6471 0.4940
vn 0.7436 -0.6473 0.1676
vn -0.0950 -0.3288 0.9396
vn -0.5208 -0.3289 0.7878
vn -0.6679 -0.6470 0.3678
vn -0.8273 -0.3287 0.4555
vn -0.7623 -0.6470 0.0153
vn -0.9442 -0.3287 0.0189
vn -0.6821 -0.6469 -0.3408
vn -0.4456 -0.6470 -0.6187
vn -0.1070 -0.6472 -0.7548
vn 0.2560 -0.6471 -0.7182
# 164 vertex normals

vt 0.2700 0.1934 0.0000
vt 0.2413 0.1519 0.0000
vt 0.2352 0.1016 0.0000
vt 0.2529 0.0542 0.0000
vt 0.2910 0.0210 0.0000
vt 0.3655 0.2168 0.0000
vt 0.3147 0.2168 0.0000
vt 0.4270 0.0542 0.0000
vt 0.3401 0.0088 0.0000
vt 0.3892 0.0210 0.0000
vt 0.4451 0.1016 0.0000
vt 0.4390 0.1519 0.0000
vt 0.4102 0.1934 0.0000
vt 0.2262 0.1035 0.0000
vt 0.2195 0.1567 0.0000
vt 0.1888 0.2007 0.0000
vt 0.1674 0.0176 0.0000
vt 0.2073 0.0532 0.0000
vt 0.0632 0.0171 0.0000
vt 0.1154 0.0044 0.0000
vt 0.0403 0.2002 0.0000
vt 0.1412 0.2251 0.0000
vt 0.0877 0.2251 0.0000
vt 0.0100 0.1558 0.0000
vt 0.0038 0.1025 0.0000
vt 0.0230 0.0522 0.0000
vt 0.5234 0.0273 0.0000
vt 0.5293 0.0073 0.0000
vt 0.5444 0.0337 0.0000
vt 0.5132 0.0708 0.0000
vt 0.5347 0.0566 0.0000
vt 0.5669 0.0474 0.0000
vt 0.5313 0.0752 0.0000
vt 0.5332 0.1060 0.0000
vt 0.5635 0.0605 0.0000
vt 0.5981 0.0479 0.0000
vt 0.5962 0.0605 0.0000
vt 0.6396 0.0459 0.0000
vt 0.6411 0.0586 0.0000
vt 0.6826 0.0464 0.0000
vt 0.6836 0.0571 0.0000
vt 0.6841 0.0679 0.0000
vt 0.7354 0.0581 0.0000
vt 0.6406 0.0693 0.0000
vt 0.5952 0.0732 0.0000
vt 0.5591 0.0762 0.0000
vt 0.5605 0.1030 0.0000
vt 0.5967 0.0991 0.0000
vt 0.5669 0.1182 0.0000
vt 0.5991 0.1113 0.0000
vt 0.6416 0.0957 0.0000
vt 0.6841 0.0952 0.0000
vt 0.7363 0.0684 0.0000
vt 0.7354 0.0957 0.0000
vt 0.5386 0.1245 0.0000
vt 0.5483 0.1489 0.0000
vt 0.5732 0.1318 0.0000
vt 0.6035 0.1230 0.0000
vt 0.6426 0.1060 0.0000
vt 0.6421 0.1187 0.0000
vt 0.6836 0.1060 0.0000
vt 0.6831 0.1167 0.0000
vt 0.6099 0.1494 0.0000
vt 0.5859 0.1563 0.0000
vt 0.5679 0.1694 0.0000
vt 0.5254 0.1714 0.0000
vt 0.5249 0.1528 0.0000
vt 0.5156 0.1108 0.0000
vt 0.5581 0.1973 0.0000
vt 0.9863 0.1455 0.0000
vt 0.9746 0.1992 0.0000
vt 0.9546 0.1733 0.0000
vt 0.9375 0.2236 0.0000
vt 0.9287 0.1953 0.0000
vt 0.9072 0.1729 0.0000
vt 0.9258 0.1479 0.0000
vt 0.8843 0.1592 0.0000
vt 0.8940 0.1338 0.0000
vt 0.8501 0.1519 0.0000
vt 0.8550 0.1250 0.0000
vt 0.8247 0.1494 0.0000
vt 0.8271 0.1226 0.0000
vt 0.7339 0.1064 0.0000
vt 0.7324 0.1172 0.0000
vt 0.7813 0.1089 0.0000
vt 0.7803 0.1191 0.0000
vt 0.8276 0.1123 0.0000
vt 0.8579 0.1152 0.0000
vt 0.7822 0.0981 0.0000
vt 0.8281 0.1016 0.0000
vt 0.7837 0.0708 0.0000
vt 0.8306 0.0747 0.0000
vt 0.8633 0.0791 0.0000
vt 0.8604 0.1055 0.0000
vt 0.8984 0.0840 0.0000
vt 0.9004 0.0742 0.0000
vt 0.8628 0.0688 0.0000
vt 0.8315 0.0645 0.0000
vt 0.7842 0.0601 0.0000
vt 0.7344 0.0474 0.0000
vt 0.7842 0.0498 0.0000
vt 0.8335 0.0537 0.0000
vt 0.8628 0.0581 0.0000
vt 0.9033 0.0620 0.0000
vt 0.9355 0.0571 0.0000
vt 0.9399 0.0718 0.0000
vt 0.9658 0.0376 0.0000
vt 0.9766 0.0713 0.0000
vt 0.9932 0.0674 0.0000
vt 0.9790 0.0884 0.0000
vt 0.9951 0.0845 0.0000
vt 0.9917 0.1294 0.0000
vt 0.9761 0.1235 0.0000
vt 0.9819 0.0107 0.0000
vt 0.9419 0.0874 0.0000
vt 0.9385 0.1187 0.0000
vt 0.8955 0.1108 0.0000
vt 0.8950 0.1211 0.0000
vt 0.9336 0.1338 0.0000
vt 0.9702 0.1401 0.0000
vt 0.0694 0.9987 0.0000
vt 0.0011 0.9987 0.0000
vt 0.0011 0.6301 0.0000
vt 0.1378 0.9987 0.0000
vt 0.0694 0.6301 0.0000
vt 0.0011 0.6218 0.0000
vt 0.2063 0.9987 0.0000
vt 0.1378 0.6301 0.0000
vt 0.0694 0.6218 0.0000
vt 0.0011 0.6128 0.0000
vt 0.0011 0.2295 0.0000
vt 0.0694 0.2295 0.0000
vt 0.0694 0.2393 0.0000
vt 0.0011 0.2393 0.0000
vt 0.0694 0.6128 0.0000
vt 0.1378 0.6218 0.0000
vt 0.2063 0.6301 0.0000
vt 0.2747 0.9987 0.0000
vt 0.2747 0.2393 0.0000
vt 0.3433 0.2393 0.0000
vt 0.3433 0.6128 0.0000
vt 0.2747 0.6128 0.0000
vt 0.2063 0.2393 0.0000
vt 0.2063 0.6128 0.0000
vt 0.1378 0.2393 0.0000
vt 0.1378 0.6128 0.0000
vt 0.2063 0.6218 0.0000
vt 0.2747 0.6218 0.0000
vt 0.3433 0.6218 0.0000
vt 0.4116 0.6218 0.0000
vt 0.4116 0.6128 0.0000
vt 0.4802 0.6218 0.0000
vt 0.4802 0.6128 0.0000
vt 0.5483 0.6218 0.0000
vt 0.2747 0.6301 0.0000
vt 0.3433 0.6301 0.0000
vt 0.4116 0.6301 0.0000
vt 0.4802 0.6301 0.0000
vt 0.5483 0.6301 0.0000
vt 0.3433 0.9987 0.0000
vt 0.4116 0.9987 0.0000
vt 0.4802 0.9987 0.0000
vt 0.5483 0.9987 0.0000
vt 0.6172 0.9987 0.0000
vt 0.6172 0.6301 0.0000
vt 0.6855 0.9987 0.0000
vt 0.6855 0.6301 0.0000
vt 0.7539 0.9987 0.0000
vt 0.7539 0.6301 0.0000
vt 0.8228 0.9987 0.0000
vt 0.8228 0.6301 0.0000
vt 0.8906 0.9987 0.0000
vt 0.8906 0.6301 0.0000
vt 0.8228 0.6218 0.0000
vt 0.6172 0.6218 0.0000
vt 0.6855 0.6218 0.0000
vt 0.7539 0.6218 0.0000
vt 0.7539 0.6128 0.0000
vt 0.5483 0.6128 0.0000
vt 0.6172 0.6128 0.0000
vt 0.6855 0.6128 0.0000
vt 0.6855 0.2393 0.0000
vt 0.7539 0.2393 0.0000
vt 0.8228 0.6128 0.0000
vt 0.8228 0.2393 0.0000
vt 0.7539 0.2295 0.0000
vt 0.8228 0.2295 0.0000
vt 0.8906 0.6218 0.0000
vt 0.8906 0.6128 0.0000
vt 0.8906 0.2393 0.0000
vt 0.8906 0.2295 0.0000
vt 0.6855 0.2295 0.0000
vt 0.6172 0.2295 0.0000
vt 0.6172 0.2393 0.0000
vt 0.5483 0.2295 0.0000
vt 0.5483 0.2393 0.0000
vt 0.4802 0.2295 0.0000
vt 0.4802 0.2393 0.0000
vt 0.4116 0.2295 0.0000
vt 0.4116 0.2393 0.0000
vt 0.3433 0.2295 0.0000
vt 0.2747 0.2295 0.0000
vt 0.2063 0.2295 0.0000
vt 0.1378 0.2295 0.0000
vt 0.7788 0.1465 0.0000
vt 0.7314 0.1445 0.0000
vt 0.6836 0.1440 0.0000
vt 0.6450 0.1455 0.0000
# 208 texture coords

g Cupdrink01
usemtl default
s 2
f 1/1/1 2/2/1 3/3/1 
f 3/3/1 4/4/1 5/5/1 
f 6/6/1 7/7/1 1/1/1 
f 6/6/1 1/1/1 3/3/1 
f 6/6/1 3/3/1 8/8/1 
f 3/3/1 5/5/1 8/8/1 
f 5/5/1 9/9/1 8/8/1 
f 9/9/1 10/10/1 8/8/1 
f 8/8/1 11/11/1 12/12/1 
f 6/6/1 8/8/1 12/12/1 
f 6/6/1 12/12/1 13/13/1 
f 14/14/2 15/15/2 16/16/2 
f 17/17/2 18/18/2 14/14/2 
f 19/19/2 20/20/2 17/17/2 
f 19/19/2 17/17/2 14/14/2 
f 19/19/2 14/14/2 21/21/2 
f 14/14/2 16/16/2 21/21/2 
f 16/16/2 22/22/2 21/21/2 
f 22/22/2 23/23/2 21/21/2 
s 1
f 21/21/3 24/24/4 25/25/5 
s 2
f 19/19/2 21/21/2 25/25/2 
f 19/19/2 25/25/2 26/26/2 
s 1
f 27/27/6 28/28/7 29/29/8 
f 30/30/9 27/27/6 31/31/10 
f 29/29/8 31/31/10 27/27/6 
f 31/31/10 29/29/8 32/32/11 
f 30/30/9 33/33/12 34/34/13 
f 31/31/10 33/33/12 30/30/9 
f 33/33/12 31/31/10 35/35/14 
f 32/32/11 35/35/14 31/31/10 
f 35/35/14 32/32/11 36/36/15 
f 36/36/15 37/37/16 35/35/14 
f 37/37/16 36/36/15 38/38/17 
f 38/38/17 39/39/18 37/37/16 
f 39/39/18 38/38/17 40/40/19 
f 40/40/19 41/41/20 39/39/18 
f 42/42/21 41/41/20 43/43/22 
f 41/41/20 42/42/21 44/44/23 
f 44/44/23 39/39/18 41/41/20 
f 39/39/18 44/44/23 45/45/24 
f 45/45/24 37/37/16 39/39/18 
f 37/37/16 45/45/24 46/46/25 
f 46/46/25 35/35/14 37/37/16 
f 35/35/14 46/46/25 33/33/12 
f 34/34/13 33/33/12 46/46/25 
f 46/46/25 47/47/26 34/34/13 
f 48/48/27 45/45/24 44/44/23 
f 47/47/26 46/46/25 45/45/24 
f 45/45/24 48/48/27 47/47/26 
f 49/49/28 47/47/26 48/48/27 
f 48/48/27 50/50/29 49/49/28 
f 50/50/29 48/48/27 51/51/30 
f 44/44/23 51/51/30 48/48/27 
f 51/51/30 44/44/23 42/42/21 
f 42/42/21 52/52/31 51/51/30 
f 52/52/31 42/42/21 53/53/32 
f 53/53/32 54/54/33 52/52/31 
f 55/55/34 34/34/13 47/47/26 
f 47/47/26 49/49/28 55/55/34 
f 56/56/35 55/55/34 49/49/28 
f 49/49/28 57/57/36 56/56/35 
f 57/57/36 49/49/28 50/50/29 
f 50/50/29 58/58/37 57/57/36 
f 58/58/37 50/50/29 59/59/38 
f 59/59/38 60/60/39 58/58/37 
f 60/60/39 59/59/38 61/61/40 
f 61/61/40 62/62/41 60/60/39 
f 58/58/37 36/63/15 32/64/11 
f 32/64/11 57/57/36 58/58/37 
f 57/57/36 32/64/11 29/65/8 
f 29/65/8 56/56/35 57/57/36 
f 63/66/42 56/56/35 29/65/8 
f 56/56/35 63/66/42 64/67/43 
f 64/67/43 55/55/34 56/56/35 
f 55/55/34 64/67/43 65/68/44 
f 65/68/44 34/34/13 55/55/34 
f 34/34/13 65/68/44 30/30/9 
f 29/65/8 28/69/7 63/66/42 
f 66/70/45 67/71/46 68/72/47 
f 68/72/47 67/71/46 69/73/48 
f 69/73/48 70/74/49 68/72/47 
f 68/72/47 70/74/49 71/75/50 
f 71/75/50 72/76/51 68/72/47 
f 72/76/51 71/75/50 73/77/52 
f 73/77/52 74/78/53 72/76/51 
f 74/78/53 73/77/52 75/79/54 
f 75/79/54 76/80/55 74/78/53 
f 76/80/55 75/79/54 77/81/56 
f 77/81/56 78/82/57 76/80/55 
f 62/62/41 61/61/40 79/83/58 
f 79/83/58 80/84/59 62/62/41 
f 80/84/59 79/83/58 81/85/60 
f 81/85/60 82/86/61 80/84/59 
f 82/86/61 81/85/60 83/87/62 
f 83/87/62 78/82/57 82/86/61 
f 78/82/57 83/87/62 84/88/63 
f 84/88/63 76/80/55 78/82/57 
f 74/78/53 76/80/55 84/88/63 
f 51/51/30 59/59/38 50/50/29 
f 59/59/38 51/51/30 52/52/31 
f 52/52/31 61/61/40 59/59/38 
f 61/61/40 52/52/31 54/54/33 
f 54/54/33 79/83/58 61/61/40 
f 79/83/58 54/54/33 85/89/64 
f 85/89/64 81/85/60 79/83/58 
f 81/85/60 85/89/64 86/90/65 
f 86/90/65 83/87/62 81/85/60 
f 54/54/33 53/53/32 87/91/66 
f 87/91/66 85/89/64 54/54/33 
f 85/89/64 87/91/66 88/92/67 
f 88/92/67 86/90/65 85/89/64 
f 86/90/65 88/92/67 89/93/68 
f 89/93/68 90/94/69 86/90/65 
f 83/87/62 86/90/65 90/94/69 
f 90/94/69 84/88/63 83/87/62 
f 90/94/69 89/93/68 91/95/70 
f 92/96/71 91/95/70 89/93/68 
f 89/93/68 93/97/72 92/96/71 
f 93/97/72 89/93/68 88/92/67 
f 88/92/67 94/98/73 93/97/72 
f 94/98/73 88/92/67 87/91/66 
f 87/91/66 95/99/74 94/98/73 
f 95/99/74 87/91/66 53/53/32 
f 53/53/32 43/43/22 95/99/74 
f 43/43/22 53/53/32 42/42/21 
f 41/41/20 40/40/19 96/100/75 
f 96/100/75 43/43/22 41/41/20 
f 43/43/22 96/100/75 97/101/76 
f 97/101/76 95/99/74 43/43/22 
f 95/99/74 97/101/76 77/102/56 
f 77/102/56 94/98/73 95/99/74 
f 94/98/73 77/102/56 75/103/54 
f 75/103/54 93/97/72 94/98/73 
f 93/97/72 75/103/54 73/104/52 
f 73/104/52 92/96/71 93/97/72 
f 92/96/71 73/104/52 71/105/50 
f 71/105/50 98/106/77 92/96/71 
f 98/106/77 71/105/50 70/107/49 
f 70/107/49 99/108/78 98/106/77 
f 100/109/79 99/108/78 70/107/49 
f 101/110/80 99/108/78 100/109/79 
f 100/109/79 102/111/81 101/110/80 
f 101/110/80 102/111/81 103/112/82 
f 103/112/82 104/113/83 101/110/80 
f 104/113/83 103/112/82 66/70/45 
f 70/107/49 69/114/48 100/109/79 
f 105/115/84 98/106/77 99/108/78 
f 99/108/78 101/110/80 105/115/84 
f 106/116/85 105/115/84 101/110/80 
f 101/110/80 104/113/83 106/116/85 
f 91/95/70 92/96/71 98/106/77 
f 98/106/77 105/115/84 91/95/70 
f 107/117/86 91/95/70 105/115/84 
f 105/115/84 106/116/85 107/117/86 
f 108/118/87 107/117/86 106/116/85 
f 106/116/85 109/119/88 108/118/87 
f 109/119/88 106/116/85 104/113/83 
f 104/113/83 110/120/89 109/119/88 
f 66/70/45 110/120/89 104/113/83 
f 68/72/47 110/120/89 66/70/45 
f 109/119/88 110/120/89 68/72/47 
f 68/72/47 72/76/51 109/119/88 
f 109/119/88 72/76/51 74/78/53 
f 74/78/53 108/118/87 109/119/88 
f 84/88/63 108/118/87 74/78/53 
f 107/117/86 108/118/87 84/88/63 
f 84/88/63 90/94/69 107/117/86 
f 91/95/70 107/117/86 90/94/69 
f 12/121/90 11/122/91 111/123/92 
f 13/124/93 12/121/90 112/125/94 
f 111/123/92 112/125/94 12/121/90 
f 112/125/94 111/123/92 113/126/95 
f 6/127/96 13/124/93 114/128/97 
f 112/125/94 114/128/97 13/124/93 
f 114/128/97 112/125/94 115/129/98 
f 113/126/95 115/129/98 112/125/94 
f 115/129/98 113/126/95 116/130/99 
f 16/131/100 15/132/101 117/133/102 
f 117/133/102 118/134/103 16/131/100 
f 118/134/103 117/133/102 119/135/104 
f 119/135/104 116/130/99 118/134/103 
f 116/130/99 119/135/104 115/129/98 
f 120/136/105 115/129/98 119/135/104 
f 115/129/98 120/136/105 114/128/97 
f 121/137/106 114/128/97 120/136/105 
f 114/128/97 121/137/106 6/127/96 
f 7/138/107 6/127/96 121/137/106 
f 122/139/108 123/140/109 124/141/110 
f 124/141/110 125/142/111 122/139/108 
f 126/143/112 122/139/108 125/142/111 
f 125/142/111 127/144/113 126/143/112 
f 128/145/114 126/143/112 127/144/113 
f 127/144/113 129/146/115 128/145/114 
f 117/133/102 128/145/114 129/146/115 
f 129/146/115 119/135/104 117/133/102 
f 119/135/104 129/146/115 120/136/105 
f 130/147/116 120/136/105 129/146/115 
f 129/146/115 127/144/113 130/147/116 
f 131/148/117 130/147/116 127/144/113 
f 127/144/113 125/142/111 131/148/117 
f 132/149/118 131/148/117 125/142/111 
f 125/142/111 124/141/110 132/149/118 
f 133/150/119 132/149/118 124/141/110 
f 124/141/110 134/151/120 133/150/119 
f 135/152/121 133/150/119 134/151/120 
f 134/151/120 136/153/122 135/152/121 
f 137/154/123 135/152/121 136/153/122 
f 120/136/105 130/147/116 121/137/106 
f 138/155/124 121/137/106 130/147/116 
f 130/147/116 131/148/117 138/155/124 
f 139/156/125 138/155/124 131/148/117 
f 131/148/117 132/149/118 139/156/125 
f 140/157/126 139/156/125 132/149/118 
f 132/149/118 133/150/119 140/157/126 
f 141/158/127 140/157/126 133/150/119 
f 133/150/119 135/152/121 141/158/127 
f 142/159/128 141/158/127 135/152/121 
f 121/137/106 138/155/124 7/138/107 
f 1/160/129 7/138/107 138/155/124 
f 138/155/124 139/156/125 1/160/129 
f 2/161/130 1/160/129 139/156/125 
f 139/156/125 140/157/126 2/161/130 
f 3/162/131 2/161/130 140/157/126 
f 140/157/126 141/158/127 3/162/131 
f 4/163/132 3/162/131 141/158/127 
f 141/158/127 142/159/128 4/163/132 
f 5/164/133 4/163/132 142/159/128 
f 142/159/128 143/165/134 5/164/133 
f 9/166/135 5/164/133 143/165/134 
f 143/165/134 144/167/136 9/166/135 
f 10/168/137 9/166/135 144/167/136 
f 144/167/136 145/169/138 10/168/137 
f 8/170/139 10/168/137 145/169/138 
f 145/169/138 146/171/140 8/170/139 
f 11/172/91 8/170/139 146/171/140 
f 146/171/140 111/173/92 11/172/91 
f 111/173/92 146/171/140 147/174/141 
f 135/152/121 137/154/123 142/159/128 
f 143/165/134 142/159/128 137/154/123 
f 137/154/123 148/175/142 143/165/134 
f 144/167/136 143/165/134 148/175/142 
f 148/175/142 149/176/143 144/167/136 
f 145/169/138 144/167/136 149/176/143 
f 149/176/143 150/177/144 145/169/138 
f 146/171/140 145/169/138 150/177/144 
f 150/177/144 147/174/141 146/171/140 
f 147/174/141 150/177/144 151/178/145 
f 136/153/122 152/179/146 137/154/123 
f 148/175/142 137/154/123 152/179/146 
f 152/179/146 153/180/147 148/175/142 
f 149/176/143 148/175/142 153/180/147 
f 153/180/147 154/181/148 149/176/143 
f 150/177/144 149/176/143 154/181/148 
f 154/181/148 151/178/145 150/177/144 
f 151/178/145 154/181/148 155/182/149 
f 155/182/149 156/183/150 151/178/145 
f 151/178/145 157/184/151 147/174/141 
f 157/184/151 151/178/145 156/183/150 
f 156/183/150 158/185/152 157/184/151 
f 158/185/152 156/183/150 23/186/153 
f 23/186/153 22/187/154 158/185/152 
f 147/174/141 113/188/95 111/173/92 
f 113/188/95 147/174/141 157/184/151 
f 157/184/151 116/189/99 113/188/95 
f 116/189/99 157/184/151 158/185/152 
f 158/185/152 118/190/103 116/189/99 
f 118/190/103 158/185/152 22/187/154 
f 22/187/154 16/191/100 118/190/103 
f 21/192/3 23/186/153 156/183/150 
f 156/183/150 155/182/149 21/192/3 
f 24/193/4 21/192/3 155/182/149 
f 155/182/149 159/194/155 24/193/4 
f 25/195/5 24/193/4 159/194/155 
f 159/194/155 160/196/156 25/195/5 
f 26/197/157 25/195/5 160/196/156 
f 160/196/156 161/198/158 26/197/157 
f 19/199/159 26/197/157 161/198/158 
f 161/198/158 162/200/160 19/199/159 
f 159/194/155 155/182/149 154/181/148 
f 154/181/148 153/180/147 159/194/155 
f 160/196/156 159/194/155 153/180/147 
f 153/180/147 152/179/146 160/196/156 
f 161/198/158 160/196/156 152/179/146 
f 152/179/146 136/153/122 161/198/158 
f 162/200/160 161/198/158 136/153/122 
f 136/153/122 134/151/120 162/200/160 
f 123/140/109 162/200/160 134/151/120 
f 134/151/120 124/141/110 123/140/109 
f 20/201/161 19/199/159 162/200/160 
f 162/200/160 123/140/109 20/201/161 
f 17/202/162 20/201/161 123/140/109 
f 123/140/109 122/139/108 17/202/162 
f 18/203/163 17/202/162 122/139/108 
f 122/139/108 126/143/112 18/203/163 
f 14/204/164 18/203/163 126/143/112 
f 126/143/112 128/145/114 14/204/164 
f 15/132/101 14/204/164 128/145/114 
f 128/145/114 117/133/102 15/132/101 
f 78/82/57 77/81/56 97/205/76 
f 97/205/76 82/86/61 78/82/57 
f 82/86/61 97/205/76 96/206/75 
f 96/206/75 80/84/59 82/86/61 
f 80/84/59 96/206/75 40/207/19 
f 40/207/19 62/62/41 80/84/59 
f 62/62/41 40/207/19 38/208/17 
f 38/208/17 60/60/39 62/62/41 
f 60/60/39 38/208/17 36/63/15 
f 36/63/15 58/58/37 60/60/39 
# 0 polygons - 308 triangles

