# 3ds Max Wavefront OBJ Exporter v0.97b - (c)2007 guruware
# File Created: 03.03.2017 12:22:04

mtllib SM_Computer_sys01.mtl

#
# object Computer_sys
#

v  -0.1040 0.5632 0.2541
v  -0.0973 0.5567 0.3092
v  0.0968 0.5567 0.3082
v  0.1029 0.5632 0.2531
v  -0.1068 0.5632 -0.3075
v  0.1001 0.5632 -0.3085
v  0.0935 0.5377 -0.3084
v  0.0937 -0.0015 -0.3084
v  0.0938 -0.0015 -0.2991
v  0.0936 0.5377 -0.2992
v  -0.0987 -0.0015 -0.3074
v  -0.0969 0.5377 -0.3075
v  -0.0968 0.5377 -0.2982
v  -0.0986 -0.0015 -0.2982
v  0.1057 0.0155 0.3082
v  -0.1062 0.0155 0.3092
v  -0.0973 0.0051 0.3092
v  0.0968 0.0051 0.3082
v  0.1057 0.5463 0.3082
v  -0.1062 0.5463 0.3092
v  -0.1068 -0.0015 -0.3075
v  -0.1161 0.0091 -0.3074
v  0.1094 0.5526 -0.3085
v  -0.1161 0.5526 -0.3074
v  0.1094 0.0091 -0.3085
v  0.1001 -0.0015 -0.3085
v  -0.1132 0.5526 0.2542
v  -0.1132 0.0091 0.2542
v  -0.1040 -0.0015 0.2541
v  0.1122 0.0091 0.2531
v  0.1029 -0.0015 0.2531
v  0.1122 0.5526 0.2531
# 32 vertices

vn 0.0003 0.9984 0.0565
vn 0.0006 0.9931 0.1172
vn 0.0006 0.9931 0.1173
vn -0.3248 0.7108 -0.6239
vn -0.0048 0.5649 -0.8252
vn -0.7068 -0.7074 0.0039
vn -1.0000 -0.0004 0.0063
vn -0.7070 -0.7072 0.0039
vn 1.0000 -0.0034 -0.0056
vn 0.7062 -0.7080 -0.0044
vn 0.7057 -0.7085 -0.0044
vn 0.0051 -0.0005 1.0000
vn -0.6767 -0.2402 0.6960
vn -0.3937 -0.3402 0.8540
vn 0.0052 -0.0016 1.0000
vn 0.0051 0.0005 1.0000
vn -0.6767 0.2401 0.6960
vn 0.0051 0.0014 1.0000
vn -0.3929 0.3402 0.8543
vn -0.4241 -0.3682 -0.8274
vn -0.7246 -0.2724 -0.6331
vn -0.0001 0.0029 -1.0000
vn -0.0053 0.0001 -1.0000
vn -0.0046 -0.0002 -1.0000
vn -0.0048 -0.0001 -1.0000
vn -0.0055 0.0002 -1.0000
vn -0.0071 -0.0004 -1.0000
vn -0.0065 -0.0005 -1.0000
vn -0.0040 -0.0012 -1.0000
vn -0.7255 0.2719 -0.6323
vn -0.0069 0.0003 -1.0000
vn -0.0067 0.0001 -1.0000
vn -0.0073 0.0009 -1.0000
vn -0.9313 0.3553 0.0800
vn -0.7515 0.6541 0.0854
vn -0.9311 -0.3557 0.0807
vn -0.7519 -0.6536 0.0866
vn 0.9320 -0.3554 0.0708
vn 0.9329 -0.3288 0.1470
vn 0.7486 -0.6430 0.1617
vn 0.7524 -0.6541 0.0783
vn 0.9320 0.3555 0.0708
vn 0.9328 0.3297 0.1458
vn 0.7527 0.6536 0.0783
vn 0.7496 0.6425 0.1592
vn 0.9357 -0.3527 -0.0047
vn 0.7510 -0.6603 -0.0038
vn 0.9357 0.3527 -0.0046
vn 0.7511 0.6602 -0.0037
vn 0.0000 -1.0000 -0.0000
vn 0.0006 -0.9929 0.1190
# 51 vertex normals

vt 0.5316 0.9972 0.0000
vt 0.4859 0.9916 0.0000
vt 0.4858 0.8298 0.0000
vt 0.5317 0.8274 0.0000
vt 0.9950 0.9976 0.0000
vt 0.9950 0.8267 0.0000
vt 0.0247 0.4695 0.0000
vt 0.0227 0.0136 0.0000
vt 0.0274 0.0125 0.0000
vt 0.0274 0.4627 0.0000
vt 0.1880 0.0137 0.0000
vt 0.1847 0.4695 0.0000
vt 0.1820 0.4627 0.0000
vt 0.1833 0.0125 0.0000
vt 0.2066 0.4705 0.0000
vt 0.3815 0.4705 0.0000
vt 0.3741 0.4791 0.0000
vt 0.2139 0.4791 0.0000
vt 0.2066 0.0325 0.0000
vt 0.3815 0.0325 0.0000
vt 0.2139 0.0239 0.0000
vt 0.3741 0.0239 0.0000
vt 0.1945 0.0140 0.0000
vt 0.2013 0.0232 0.0000
vt 0.0208 0.4910 0.0000
vt 0.0121 0.4821 0.0000
vt 0.2001 0.4821 0.0000
vt 0.1915 0.4910 0.0000
vt 0.0110 0.0232 0.0000
vt 0.0177 0.0140 0.0000
vt 0.4673 0.5323 0.0000
vt 0.4622 0.4866 0.0000
vt 0.4735 0.4856 0.0000
vt 0.4788 0.5317 0.0000
vt 0.0189 0.5323 0.0000
vt 0.0240 0.4920 0.0000
vt 0.0073 0.5317 0.0000
vt 0.0127 0.4856 0.0000
vt 0.4673 0.9955 0.0000
vt 0.4789 0.9954 0.0000
vt 0.0189 0.9955 0.0000
vt 0.0073 0.9954 0.0000
vt 0.5282 0.3700 0.0000
vt 0.4825 0.3757 0.0000
vt 0.4814 0.3644 0.0000
vt 0.5274 0.3584 0.0000
vt 0.5316 0.8175 0.0000
vt 0.4857 0.8154 0.0000
vt 0.9914 0.3662 0.0000
vt 0.9912 0.3545 0.0000
vt 0.9949 0.8148 0.0000
vt 0.9948 0.9972 0.0000
vt 0.5275 0.9974 0.0000
vt 0.9871 0.9920 0.0000
vt 0.9948 0.9920 0.0000
vt 0.4817 0.9921 0.0000
vt 0.4816 0.8318 0.0000
vt 0.5274 0.8265 0.0000
vt 0.9947 0.8265 0.0000
vt 0.9947 0.8332 0.0000
vt 0.9870 0.8332 0.0000
# 61 texture coords

g Computer_sys
usemtl Material__26
s 1
f 1/1/1 2/2/2 3/3/3 
f 3/3/3 4/4/1 1/1/1 
f 5/5/4 1/1/1 4/4/1 
f 4/4/1 6/6/5 5/5/4 
s 2
f 7/7/6 8/8/7 9/9/7 
f 9/9/7 10/10/8 7/7/6 
f 11/11/9 12/12/10 13/13/11 
f 13/13/11 14/14/9 11/11/9 
f 12/12/10 7/7/6 10/10/8 
f 10/10/8 13/13/11 12/12/10 
s 4
f 15/15/12 16/16/13 17/17/14 
f 17/17/14 18/18/15 15/15/12 
f 19/19/16 20/20/17 16/16/13 
f 16/16/13 15/15/12 19/19/16 
f 3/21/18 2/22/19 20/20/17 
f 20/20/17 19/19/16 3/21/18 
s 5
f 21/23/20 22/24/21 11/11/22 
f 10/10/23 9/9/24 14/14/25 
f 14/14/25 13/13/26 10/10/23 
f 6/25/5 23/26/27 7/7/28 
f 6/25/5 7/7/28 12/12/29 
f 6/25/5 12/12/29 24/27/30 
f 6/25/5 24/27/30 5/28/4 
f 12/12/29 11/11/22 22/24/21 
f 22/24/21 24/27/30 12/12/29 
f 8/8/31 7/7/28 23/26/27 
f 23/26/27 25/29/32 8/8/31 
f 25/29/32 26/30/33 8/8/31 
s 6
f 27/31/34 20/32/17 2/33/19 
f 2/33/19 1/34/35 27/31/34 
f 28/35/36 16/36/13 20/32/17 
f 20/32/17 27/31/34 28/35/36 
f 29/37/37 17/38/14 16/36/13 
f 16/36/13 28/35/36 29/37/37 
f 24/39/30 27/31/34 1/34/35 
f 1/34/35 5/40/4 24/39/30 
f 22/41/21 28/35/36 27/31/34 
f 27/31/34 24/39/30 22/41/21 
f 21/42/20 29/37/37 28/35/36 
f 28/35/36 22/41/21 21/42/20 
s 8
f 30/43/38 15/44/39 18/45/40 
f 18/45/40 31/46/41 30/43/38 
f 32/47/42 19/48/43 15/44/39 
f 15/44/39 30/43/38 32/47/42 
f 4/4/44 3/3/45 19/48/43 
f 19/48/43 32/47/42 4/4/44 
f 25/49/46 30/43/38 31/46/41 
f 31/46/41 26/50/47 25/49/46 
f 23/51/48 32/47/42 30/43/38 
f 30/43/38 25/49/46 23/51/48 
f 6/6/49 4/4/44 32/47/42 
f 32/47/42 23/51/48 6/6/49 
s off
f 26/52/50 31/53/50 9/54/50 8/55/50 
f 18/56/51 17/57/51 29/58/51 31/53/51 
f 29/58/50 21/59/50 11/60/50 14/61/50 
f 29/58/50 14/61/50 9/54/50 31/53/50 
# 4 polygons - 52 triangles

