# 3ds Max Wavefront OBJ Exporter v0.97b - (c)2007 guruware
# File Created: 23.02.2017 13:17:30

mtllib SM_ElectricMeter01a.mtl

#
# object ElectricMeter01a
#

v  0.2173 -0.3181 0.0397
v  0.2173 0.3181 0.0397
v  -0.2173 0.3181 0.0397
v  -0.2173 -0.3181 0.0397
v  0.2202 0.3211 0.0343
v  -0.2202 0.3211 0.0343
v  -0.2202 -0.3211 0.0343
v  0.2202 -0.3211 0.0343
v  -0.2612 -0.3590 0.0248
v  0.2612 -0.3590 0.0248
v  0.2584 -0.3552 0.0320
v  -0.2584 -0.3552 0.0320
v  0.2612 0.3590 0.0248
v  0.2584 0.3552 0.0320
v  -0.2612 0.3590 0.0248
v  -0.2584 0.3552 0.0320
v  0.2552 -0.3527 0.0343
v  -0.2552 -0.3527 0.0343
v  0.2552 0.3527 0.0343
v  -0.2552 0.3527 0.0343
v  -0.2612 -0.3590 -0.0038
v  0.2612 -0.3590 -0.0038
v  0.2612 0.3590 -0.0038
v  -0.2612 0.3590 -0.0038
v  -0.1623 -0.0126 0.0449
v  -0.1564 -0.0101 0.0449
v  -0.1526 -0.0051 0.0449
v  -0.1518 0.0013 0.0449
v  -0.1542 0.0071 0.0449
v  -0.1593 0.0110 0.0449
v  -0.1656 0.0117 0.0449
v  -0.1715 0.0093 0.0449
v  -0.1753 0.0042 0.0449
v  -0.1761 -0.0021 0.0449
v  -0.1736 -0.0080 0.0449
v  -0.1686 -0.0118 0.0449
v  -0.1519 0.0089 0.0393
v  -0.1582 0.0137 0.0393
v  -0.1660 0.0146 0.0393
v  -0.1733 0.0116 0.0393
v  -0.1780 0.0053 0.0393
v  -0.1790 -0.0025 0.0393
v  -0.1759 -0.0098 0.0393
v  -0.1697 -0.0145 0.0393
v  -0.1619 -0.0155 0.0393
v  -0.1546 -0.0124 0.0393
v  -0.1498 -0.0062 0.0393
v  -0.1489 0.0017 0.0393
# 48 vertices

vn 0.0000 0.0000 1.0000
vn 0.0000 0.8714 0.4906
vn -0.8779 0.0000 0.4788
vn 0.0000 -0.8714 0.4906
vn 0.8779 0.0000 0.4788
vn -0.6758 -0.6916 0.2549
vn 0.6758 -0.6916 0.2549
vn 0.5510 -0.4936 0.6729
vn -0.5510 -0.4936 0.6729
vn 0.6758 0.6916 0.2549
vn 0.5510 0.4936 0.6729
vn -0.6758 0.6916 0.2549
vn -0.5510 0.4936 0.6729
vn 0.2270 -0.3004 0.9264
vn -0.2270 -0.3004 0.9264
vn 0.2270 0.3004 0.9264
vn -0.2270 0.3004 0.9264
vn -0.7071 -0.7071 -0.0000
vn 0.7071 -0.7071 -0.0000
vn 0.7071 0.7071 -0.0000
vn -0.7071 0.7071 -0.0000
vn 0.3341 0.8212 0.4626
vn 0.6999 0.5442 0.4625
vn 0.6999 0.5442 0.4626
vn -0.1214 0.8783 0.4625
vn -0.5442 0.6999 0.4625
vn -0.5442 0.6999 0.4626
vn -0.8212 0.3341 0.4626
vn -0.8783 -0.1214 0.4625
vn -0.6999 -0.5442 0.4625
vn -0.6999 -0.5442 0.4626
vn -0.3341 -0.8212 0.4626
vn 0.1214 -0.8783 0.4625
vn 0.5442 -0.6999 0.4625
vn 0.5442 -0.6999 0.4626
vn 0.8212 -0.3341 0.4626
vn 0.8783 0.1214 0.4625
# 37 vertex normals

vt 0.6413 0.1067 0.0000
vt 0.6413 0.8880 0.0000
vt 0.1075 0.8880 0.0000
vt 0.1075 0.1067 0.0000
vt 0.6449 0.8955 0.0000
vt 0.1039 0.8955 0.0000
vt 0.1000 0.8917 0.0000
vt 0.1000 0.1030 0.0000
vt 0.1039 0.0992 0.0000
vt 0.6449 0.0992 0.0000
vt 0.6488 0.1030 0.0000
vt 0.6488 0.8917 0.0000
vt 0.0456 0.0388 0.0000
vt 0.7030 0.0388 0.0000
vt 0.6995 0.0491 0.0000
vt 0.0491 0.0490 0.0000
vt 0.7101 0.0454 0.0000
vt 0.7101 0.9488 0.0000
vt 0.7004 0.9440 0.0000
vt 0.7004 0.0502 0.0000
vt 0.7030 0.9554 0.0000
vt 0.0456 0.9554 0.0000
vt 0.0491 0.9451 0.0000
vt 0.6995 0.9451 0.0000
vt 0.0385 0.9487 0.0000
vt 0.0385 0.0454 0.0000
vt 0.0482 0.0502 0.0000
vt 0.0482 0.9439 0.0000
vt 0.6954 0.0533 0.0000
vt 0.0533 0.0533 0.0000
vt 0.6953 0.9409 0.0000
vt 0.0532 0.9409 0.0000
vt 0.0972 0.9011 0.0000
vt 0.6514 0.9011 0.0000
vt 0.6514 0.0931 0.0000
vt 0.0972 0.0930 0.0000
vt 0.0456 0.0028 0.0000
vt 0.7030 0.0028 0.0000
vt 0.7461 0.0454 0.0000
vt 0.7461 0.9488 0.0000
vt 0.7030 0.9914 0.0000
vt 0.0456 0.9914 0.0000
vt 0.0025 0.9487 0.0000
vt 0.0025 0.0454 0.0000
vt 0.9293 0.7555 0.0000
vt 0.9103 0.7459 0.0000
vt 0.8977 0.7290 0.0000
vt 0.8974 0.7079 0.0000
vt 0.9065 0.6887 0.0000
vt 0.9243 0.6771 0.0000
vt 0.9452 0.6746 0.0000
vt 0.9636 0.6848 0.0000
vt 0.9758 0.7023 0.0000
vt 0.9769 0.7236 0.0000
vt 0.9686 0.7429 0.0000
vt 0.9505 0.7538 0.0000
vt 0.8914 0.6737 0.0000
vt 0.9183 0.6562 0.0000
vt 0.9507 0.6543 0.0000
vt 0.9789 0.6696 0.0000
vt 0.9963 0.6968 0.0000
vt 0.9980 0.7288 0.0000
vt 0.9834 0.7578 0.0000
vt 0.9560 0.7746 0.0000
vt 0.9239 0.7761 0.0000
vt 0.8953 0.7615 0.0000
vt 0.8774 0.7344 0.0000
vt 0.8766 0.7023 0.0000
# 68 texture coords

g ElectricMeter01a
usemtl default
s off
f 1/1/1 2/2/1 3/3/1 
f 3/3/1 4/4/1 1/1/1 
f 3/3/2 2/2/2 5/5/2 
f 5/5/2 6/6/2 3/3/2 
f 4/4/3 3/3/3 6/7/3 
f 6/7/3 7/8/3 4/4/3 
f 1/1/4 4/4/4 7/9/4 
f 7/9/4 8/10/4 1/1/4 
f 2/2/5 1/1/5 8/11/5 
f 8/11/5 5/12/5 2/2/5 
s 1
f 9/13/6 10/14/7 11/15/8 
f 11/15/8 12/16/9 9/13/6 
f 10/17/7 13/18/10 14/19/11 
f 14/19/11 11/20/8 10/17/7 
f 13/21/10 15/22/12 16/23/13 
f 16/23/13 14/24/11 13/21/10 
f 15/25/12 9/26/6 12/27/9 
f 12/27/9 16/28/13 15/25/12 
f 12/16/9 11/15/8 17/29/14 
f 17/29/14 18/30/15 12/16/9 
f 19/31/16 17/29/14 11/20/8 
f 11/20/8 14/19/11 19/31/16 
f 14/24/11 16/23/13 20/32/17 
f 20/32/17 19/31/16 14/24/11 
f 18/30/15 20/32/17 16/28/13 
f 16/28/13 12/27/9 18/30/15 
f 6/33/1 5/34/1 19/31/16 
f 19/31/16 20/32/17 6/33/1 
f 8/35/1 7/36/1 18/30/15 
f 18/30/15 17/29/14 8/35/1 
f 7/36/1 6/33/1 20/32/17 
f 20/32/17 18/30/15 7/36/1 
f 5/34/1 8/35/1 17/29/14 
f 17/29/14 19/31/16 5/34/1 
f 21/37/18 22/38/19 10/14/7 
f 10/14/7 9/13/6 21/37/18 
f 22/39/19 23/40/20 13/18/10 
f 13/18/10 10/17/7 22/39/19 
f 23/41/20 24/42/21 15/22/12 
f 15/22/12 13/21/10 23/41/20 
f 24/43/21 21/44/18 9/26/6 
f 9/26/6 15/25/12 24/43/21 
f 25/45/1 26/46/1 27/47/1 
f 27/47/1 28/48/1 29/49/1 
f 29/49/1 30/50/1 31/51/1 
f 27/47/1 29/49/1 31/51/1 
f 31/51/1 32/52/1 33/53/1 
f 33/53/1 34/54/1 35/55/1 
f 31/51/1 33/53/1 35/55/1 
f 27/47/1 31/51/1 35/55/1 
f 25/45/1 27/47/1 35/55/1 
f 25/45/1 35/55/1 36/56/1 
s 2
f 30/50/22 29/49/23 37/57/24 
f 37/57/24 38/58/22 30/50/22 
f 31/51/25 30/50/22 38/58/22 
f 38/58/22 39/59/25 31/51/25 
f 32/52/26 31/51/25 39/59/25 
f 39/59/25 40/60/27 32/52/26 
f 33/53/28 32/52/26 40/60/27 
f 40/60/27 41/61/28 33/53/28 
f 34/54/29 33/53/28 41/61/28 
f 41/61/28 42/62/29 34/54/29 
f 35/55/30 34/54/29 42/62/29 
f 42/62/29 43/63/31 35/55/30 
f 36/56/32 35/55/30 43/63/31 
f 43/63/31 44/64/32 36/56/32 
f 25/45/33 36/56/32 44/64/32 
f 44/64/32 45/65/33 25/45/33 
f 26/46/34 25/45/33 45/65/33 
f 45/65/33 46/66/35 26/46/34 
f 27/47/36 26/46/34 46/66/35 
f 46/66/35 47/67/36 27/47/36 
f 28/48/37 27/47/36 47/67/36 
f 47/67/36 48/68/37 28/48/37 
f 29/49/23 28/48/37 48/68/37 
f 48/68/37 37/57/24 29/49/23 
# 0 polygons - 76 triangles

