# 3ds Max Wavefront OBJ Exporter v0.97b - (c)2007 guruware
# File Created: 23.02.2017 13:18:19

mtllib SM_Firesensor01.mtl

#
# object Firesensor01
#

v  0.1098 -0.0518 0.0257
v  0.1184 -0.0518 -0.0174
v  0.1184 0.0000 -0.0174
v  0.1098 0.0000 0.0257
v  0.0854 -0.0518 0.0622
v  0.0854 0.0000 0.0622
v  0.0489 -0.0518 0.0866
v  0.0489 0.0000 0.0866
v  0.0058 -0.0518 0.0952
v  0.0058 0.0000 0.0952
v  -0.0373 -0.0518 0.0866
v  -0.0373 0.0000 0.0866
v  -0.0738 -0.0518 0.0622
v  -0.0738 0.0000 0.0622
v  -0.0982 -0.0518 0.0257
v  -0.0982 0.0000 0.0257
v  -0.1068 -0.0518 -0.0174
v  -0.1068 0.0000 -0.0174
v  -0.0982 -0.0518 -0.0604
v  -0.0982 0.0000 -0.0604
v  -0.0738 -0.0518 -0.0970
v  -0.0738 0.0000 -0.0970
v  -0.0373 -0.0518 -0.1214
v  -0.0373 0.0000 -0.1214
v  0.0058 -0.0518 -0.1299
v  0.0058 0.0000 -0.1299
v  0.0489 -0.0518 -0.1214
v  0.0489 0.0000 -0.1214
v  0.0854 -0.0518 -0.0970
v  0.0854 0.0000 -0.0970
v  0.1098 -0.0518 -0.0604
v  0.1098 0.0000 -0.0604
v  0.0792 -0.0678 0.0130
v  0.0852 -0.0678 -0.0174
v  0.0620 -0.0678 0.0388
v  0.0362 -0.0678 0.0560
v  0.0058 -0.0678 0.0621
v  -0.0246 -0.0678 0.0560
v  -0.0504 -0.0678 0.0388
v  -0.0676 -0.0678 0.0130
v  -0.0737 -0.0678 -0.0174
v  -0.0676 -0.0678 -0.0478
v  -0.0504 -0.0678 -0.0735
v  -0.0246 -0.0678 -0.0908
v  0.0058 -0.0678 -0.0968
v  0.0362 -0.0678 -0.0908
v  0.0620 -0.0678 -0.0735
v  0.0792 -0.0678 -0.0478
v  0.0755 -0.0941 0.0115
v  0.0813 -0.0941 -0.0174
v  0.0592 -0.0941 0.0360
v  0.0347 -0.0941 0.0524
v  0.0058 -0.0941 0.0581
v  -0.0231 -0.0941 0.0524
v  -0.0476 -0.0941 0.0360
v  -0.0639 -0.0941 0.0115
v  -0.0697 -0.0941 -0.0174
v  -0.0639 -0.0941 -0.0462
v  -0.0476 -0.0941 -0.0707
v  -0.0231 -0.0941 -0.0871
v  0.0058 -0.0941 -0.0928
v  0.0347 -0.0941 -0.0871
v  0.0592 -0.0941 -0.0707
v  0.0755 -0.0941 -0.0462
v  0.0711 -0.1011 0.0097
v  0.0765 -0.1011 -0.0174
v  0.0558 -0.1011 0.0326
v  0.0328 -0.1011 0.0480
v  0.0058 -0.1011 0.0533
v  -0.0213 -0.1011 0.0480
v  -0.0442 -0.1011 0.0326
v  -0.0595 -0.1011 0.0097
v  -0.0649 -0.1011 -0.0174
v  -0.0595 -0.1011 -0.0444
v  -0.0442 -0.1011 -0.0673
v  -0.0213 -0.1011 -0.0827
v  0.0058 -0.1011 -0.0881
v  0.0328 -0.1011 -0.0827
v  0.0558 -0.1011 -0.0673
v  0.0711 -0.1011 -0.0444
# 80 vertices

vn 0.7983 -0.5033 0.3307
vn 0.8641 -0.5033 -0.0000
vn 1.0000 0.0000 -0.0000
vn 0.9239 0.0000 0.3827
vn 0.6110 -0.5033 0.6110
vn 0.7071 0.0000 0.7071
vn 0.3307 -0.5033 0.7983
vn 0.3827 0.0000 0.9239
vn 0.0000 -0.5033 0.8641
vn 0.0000 0.0000 1.0000
vn -0.3307 -0.5033 0.7983
vn -0.3827 0.0000 0.9239
vn -0.6110 -0.5033 0.6110
vn -0.7071 0.0000 0.7071
vn -0.7983 -0.5033 0.3307
vn -0.9239 0.0000 0.3827
vn -0.8641 -0.5033 -0.0000
vn -1.0000 0.0000 -0.0000
vn -0.7983 -0.5033 -0.3307
vn -0.9239 0.0000 -0.3827
vn -0.6110 -0.5033 -0.6110
vn -0.7071 0.0000 -0.7071
vn -0.3307 -0.5033 -0.7983
vn -0.3827 0.0000 -0.9239
vn 0.0000 -0.5033 -0.8641
vn 0.0000 0.0000 -1.0000
vn 0.3307 -0.5033 -0.7983
vn 0.3827 0.0000 -0.9239
vn 0.6110 -0.5033 -0.6110
vn 0.7071 0.0000 -0.7071
vn 0.7983 -0.5033 -0.3307
vn 0.9239 0.0000 -0.3827
vn 0.4028 -0.9000 0.1668
vn 0.4360 -0.9000 -0.0000
vn 0.3083 -0.9000 0.3083
vn 0.1668 -0.9000 0.4028
vn 0.0000 -0.9000 0.4360
vn -0.1668 -0.9000 0.4028
vn -0.3083 -0.9000 0.3083
vn -0.4028 -0.9000 0.1668
vn -0.4360 -0.9000 -0.0000
vn -0.4028 -0.9000 -0.1668
vn -0.3083 -0.9000 -0.3083
vn -0.1668 -0.9000 -0.4028
vn 0.0000 -0.9000 -0.4360
vn 0.1668 -0.9000 -0.4028
vn 0.3083 -0.9000 -0.3083
vn 0.4028 -0.9000 -0.1668
vn 0.8635 -0.3556 0.3577
vn 0.9346 -0.3556 -0.0000
vn 0.9887 -0.1500 -0.0000
vn 0.9134 -0.1500 0.3784
vn 0.6609 -0.3556 0.6609
vn 0.6991 -0.1500 0.6991
vn 0.3577 -0.3556 0.8635
vn 0.3784 -0.1500 0.9134
vn 0.0000 -0.3556 0.9346
vn 0.0000 -0.1500 0.9887
vn -0.3577 -0.3556 0.8635
vn -0.3784 -0.1500 0.9134
vn -0.6609 -0.3556 0.6609
vn -0.6991 -0.1500 0.6991
vn -0.8635 -0.3556 0.3577
vn -0.9134 -0.1500 0.3784
vn -0.9346 -0.3556 -0.0000
vn -0.9887 -0.1500 -0.0000
vn -0.8635 -0.3556 -0.3577
vn -0.9134 -0.1500 -0.3784
vn -0.6609 -0.3556 -0.6609
vn -0.6991 -0.1500 -0.6991
vn -0.3577 -0.3556 -0.8635
vn -0.3784 -0.1500 -0.9134
vn 0.0000 -0.3556 -0.9346
vn 0.0000 -0.1500 -0.9887
vn 0.3577 -0.3556 -0.8635
vn 0.3784 -0.1500 -0.9134
vn 0.6609 -0.3556 -0.6609
vn 0.6991 -0.1500 -0.6991
vn 0.8635 -0.3556 -0.3577
vn 0.9134 -0.1500 -0.3784
vn 0.4727 -0.8592 0.1958
vn 0.5116 -0.8592 -0.0000
vn 0.3618 -0.8592 0.3618
vn 0.1958 -0.8592 0.4727
vn 0.0000 -0.8592 0.5116
vn -0.1958 -0.8592 0.4727
vn -0.3618 -0.8592 0.3618
vn -0.4727 -0.8592 0.1958
vn -0.5116 -0.8592 -0.0000
vn -0.4727 -0.8592 -0.1958
vn -0.3618 -0.8592 -0.3618
vn -0.1958 -0.8592 -0.4727
vn 0.0000 -0.8592 -0.5116
vn 0.1958 -0.8592 -0.4727
vn 0.3618 -0.8592 -0.3618
vn 0.4727 -0.8592 -0.1958
# 96 vertex normals

vt 0.1115 0.8680 0.0000
vt 0.2188 0.8680 0.0000
vt 0.2188 0.9945 0.0000
vt 0.1115 0.9945 0.0000
vt 0.0041 0.8680 0.0000
vt 0.0041 0.9945 0.0000
vt 0.6507 0.7366 0.0000
vt 0.7580 0.7366 0.0000
vt 0.7580 0.8631 0.0000
vt 0.6507 0.8631 0.0000
vt 0.5434 0.7366 0.0000
vt 0.5434 0.8631 0.0000
vt 0.4360 0.7366 0.0000
vt 0.4360 0.8631 0.0000
vt 0.3287 0.7366 0.0000
vt 0.3287 0.8631 0.0000
vt 0.2214 0.7366 0.0000
vt 0.2214 0.8631 0.0000
vt 0.1141 0.7366 0.0000
vt 0.1141 0.8631 0.0000
vt 0.0067 0.7366 0.0000
vt 0.0067 0.8631 0.0000
vt 0.8645 0.8680 0.0000
vt 0.9718 0.8680 0.0000
vt 0.9718 0.9945 0.0000
vt 0.8645 0.9945 0.0000
vt 0.7572 0.8680 0.0000
vt 0.7572 0.9945 0.0000
vt 0.6499 0.8680 0.0000
vt 0.6499 0.9945 0.0000
vt 0.5425 0.8680 0.0000
vt 0.5425 0.9945 0.0000
vt 0.4352 0.8680 0.0000
vt 0.4352 0.9945 0.0000
vt 0.3261 0.8680 0.0000
vt 0.3261 0.9945 0.0000
vt 0.2145 0.5307 0.0000
vt 0.2977 0.5648 0.0000
vt 0.2769 0.6720 0.0000
vt 0.1542 0.6217 0.0000
vt 0.1507 0.4674 0.0000
vt 0.0602 0.5284 0.0000
vt 0.1160 0.3845 0.0000
vt 0.0090 0.4062 0.0000
vt 0.1156 0.2946 0.0000
vt 0.0084 0.2737 0.0000
vt 0.1497 0.2114 0.0000
vt 0.0587 0.1511 0.0000
vt 0.2130 0.1475 0.0000
vt 0.1520 0.0570 0.0000
vt 0.2959 0.1128 0.0000
vt 0.2742 0.0058 0.0000
vt 0.3858 0.1124 0.0000
vt 0.4067 0.0053 0.0000
vt 0.4690 0.1465 0.0000
vt 0.5293 0.0555 0.0000
vt 0.5329 0.2098 0.0000
vt 0.6234 0.1488 0.0000
vt 0.5676 0.2928 0.0000
vt 0.6746 0.2710 0.0000
vt 0.5680 0.3827 0.0000
vt 0.6751 0.4035 0.0000
vt 0.5339 0.4659 0.0000
vt 0.6249 0.5262 0.0000
vt 0.4706 0.5297 0.0000
vt 0.5316 0.6202 0.0000
vt 0.3876 0.5644 0.0000
vt 0.4094 0.6714 0.0000
vt 0.8882 0.1438 0.0000
vt 0.8882 0.0233 0.0000
vt 0.9937 0.0233 0.0000
vt 0.9937 0.1438 0.0000
vt 0.8882 0.2644 0.0000
vt 0.9937 0.2644 0.0000
vt 0.8882 0.3850 0.0000
vt 0.9937 0.3850 0.0000
vt 0.8882 0.5055 0.0000
vt 0.9937 0.5055 0.0000
vt 0.8882 0.6260 0.0000
vt 0.9937 0.6260 0.0000
vt 0.8882 0.7460 0.0000
vt 0.9937 0.7460 0.0000
vt 0.8882 0.8652 0.0000
vt 0.9937 0.8652 0.0000
vt 0.6522 0.6049 0.0000
vt 0.6522 0.4859 0.0000
vt 0.7576 0.4859 0.0000
vt 0.7576 0.6049 0.0000
vt 0.6522 0.7246 0.0000
vt 0.7576 0.7246 0.0000
vt 0.7749 0.1401 0.0000
vt 0.7749 0.0199 0.0000
vt 0.8804 0.0199 0.0000
vt 0.8804 0.1401 0.0000
vt 0.7749 0.2604 0.0000
vt 0.8804 0.2604 0.0000
vt 0.7749 0.3808 0.0000
vt 0.8804 0.3808 0.0000
vt 0.7749 0.5012 0.0000
vt 0.8804 0.5012 0.0000
vt 0.7749 0.6216 0.0000
vt 0.8804 0.6216 0.0000
vt 0.7749 0.7420 0.0000
vt 0.8804 0.7420 0.0000
vt 0.7749 0.8625 0.0000
vt 0.8804 0.8625 0.0000
vt 0.1923 0.4679 0.0000
vt 0.2502 0.5166 0.0000
vt 0.2387 0.5374 0.0000
vt 0.1736 0.4826 0.0000
vt 0.1573 0.4006 0.0000
vt 0.1344 0.4068 0.0000
vt 0.1506 0.3247 0.0000
vt 0.1271 0.3216 0.0000
vt 0.1731 0.2514 0.0000
vt 0.1525 0.2395 0.0000
vt 0.2213 0.1913 0.0000
vt 0.2069 0.1726 0.0000
vt 0.2889 0.1538 0.0000
vt 0.2825 0.1309 0.0000
vt 0.3653 0.1440 0.0000
vt 0.3689 0.1211 0.0000
vt 0.4376 0.1703 0.0000
vt 0.4503 0.1504 0.0000
vt 0.4956 0.2214 0.0000
vt 0.5147 0.2076 0.0000
vt 0.5297 0.2905 0.0000
vt 0.5526 0.2845 0.0000
vt 0.5358 0.3668 0.0000
vt 0.5594 0.3696 0.0000
vt 0.5130 0.4394 0.0000
vt 0.5338 0.4508 0.0000
vt 0.4645 0.4976 0.0000
vt 0.4794 0.5161 0.0000
vt 0.3975 0.5327 0.0000
vt 0.4042 0.5555 0.0000
vt 0.3223 0.5394 0.0000
vt 0.3197 0.5630 0.0000
# 138 texture coords

g Firesensor01
usemtl Material__25
s 2
f 1/1/1 2/2/2 3/3/3 
f 3/3/3 4/4/4 1/1/1 
f 5/5/5 1/1/1 4/4/4 
f 4/4/4 6/6/6 5/5/5 
f 7/7/7 5/8/5 6/9/6 
f 6/9/6 8/10/8 7/7/7 
f 9/11/9 7/7/7 8/10/8 
f 8/10/8 10/12/10 9/11/9 
f 11/13/11 9/11/9 10/12/10 
f 10/12/10 12/14/12 11/13/11 
f 13/15/13 11/13/11 12/14/12 
f 12/14/12 14/16/14 13/15/13 
f 15/17/15 13/15/13 14/16/14 
f 14/16/14 16/18/16 15/17/15 
f 17/19/17 15/17/15 16/18/16 
f 16/18/16 18/20/18 17/19/17 
f 19/21/19 17/19/17 18/20/18 
f 18/20/18 20/22/20 19/21/19 
f 21/23/21 19/24/19 20/25/20 
f 20/25/20 22/26/22 21/23/21 
f 23/27/23 21/23/21 22/26/22 
f 22/26/22 24/28/24 23/27/23 
f 25/29/25 23/27/23 24/28/24 
f 24/28/24 26/30/26 25/29/25 
f 27/31/27 25/29/25 26/30/26 
f 26/30/26 28/32/28 27/31/27 
f 29/33/29 27/31/27 28/32/28 
f 28/32/28 30/34/30 29/33/29 
f 31/35/31 29/33/29 30/34/30 
f 30/34/30 32/36/32 31/35/31 
f 2/2/2 31/35/31 32/36/32 
f 32/36/32 3/3/3 2/2/2 
f 33/37/33 34/38/34 2/39/2 
f 2/39/2 1/40/1 33/37/33 
f 35/41/35 33/37/33 1/40/1 
f 1/40/1 5/42/5 35/41/35 
f 36/43/36 35/41/35 5/42/5 
f 5/42/5 7/44/7 36/43/36 
f 37/45/37 36/43/36 7/44/7 
f 7/44/7 9/46/9 37/45/37 
f 38/47/38 37/45/37 9/46/9 
f 9/46/9 11/48/11 38/47/38 
f 39/49/39 38/47/38 11/48/11 
f 11/48/11 13/50/13 39/49/39 
f 40/51/40 39/49/39 13/50/13 
f 13/50/13 15/52/15 40/51/40 
f 41/53/41 40/51/40 15/52/15 
f 15/52/15 17/54/17 41/53/41 
f 42/55/42 41/53/41 17/54/17 
f 17/54/17 19/56/19 42/55/42 
f 43/57/43 42/55/42 19/56/19 
f 19/56/19 21/58/21 43/57/43 
f 44/59/44 43/57/43 21/58/21 
f 21/58/21 23/60/23 44/59/44 
f 45/61/45 44/59/44 23/60/23 
f 23/60/23 25/62/25 45/61/45 
f 46/63/46 45/61/45 25/62/25 
f 25/62/25 27/64/27 46/63/46 
f 47/65/47 46/63/46 27/64/27 
f 27/64/27 29/66/29 47/65/47 
f 48/67/48 47/65/47 29/66/29 
f 29/66/29 31/68/31 48/67/48 
f 34/38/34 48/67/48 31/68/31 
f 31/68/31 2/39/2 34/38/34 
s 1
f 49/69/49 50/70/50 34/71/51 
f 34/71/51 33/72/52 49/69/49 
f 51/73/53 49/69/49 33/72/52 
f 33/72/52 35/74/54 51/73/53 
f 52/75/55 51/73/53 35/74/54 
f 35/74/54 36/76/56 52/75/55 
f 53/77/57 52/75/55 36/76/56 
f 36/76/56 37/78/58 53/77/57 
f 54/79/59 53/77/57 37/78/58 
f 37/78/58 38/80/60 54/79/59 
f 55/81/61 54/79/59 38/80/60 
f 38/80/60 39/82/62 55/81/61 
f 56/83/63 55/81/61 39/82/62 
f 39/82/62 40/84/64 56/83/63 
f 57/85/65 56/86/63 40/87/64 
f 40/87/64 41/88/66 57/85/65 
f 58/89/67 57/85/65 41/88/66 
f 41/88/66 42/90/68 58/89/67 
f 59/91/69 58/92/67 42/93/68 
f 42/93/68 43/94/70 59/91/69 
f 60/95/71 59/91/69 43/94/70 
f 43/94/70 44/96/72 60/95/71 
f 61/97/73 60/95/71 44/96/72 
f 44/96/72 45/98/74 61/97/73 
f 62/99/75 61/97/73 45/98/74 
f 45/98/74 46/100/76 62/99/75 
f 63/101/77 62/99/75 46/100/76 
f 46/100/76 47/102/78 63/101/77 
f 64/103/79 63/101/77 47/102/78 
f 47/102/78 48/104/80 64/103/79 
f 50/105/50 64/103/79 48/104/80 
f 48/104/80 34/106/51 50/105/50 
f 65/107/81 66/108/82 50/109/50 
f 50/109/50 49/110/49 65/107/81 
f 67/111/83 65/107/81 49/110/49 
f 49/110/49 51/112/53 67/111/83 
f 68/113/84 67/111/83 51/112/53 
f 51/112/53 52/114/55 68/113/84 
f 69/115/85 68/113/84 52/114/55 
f 52/114/55 53/116/57 69/115/85 
f 70/117/86 69/115/85 53/116/57 
f 53/116/57 54/118/59 70/117/86 
f 71/119/87 70/117/86 54/118/59 
f 54/118/59 55/120/61 71/119/87 
f 72/121/88 71/119/87 55/120/61 
f 55/120/61 56/122/63 72/121/88 
f 73/123/89 72/121/88 56/122/63 
f 56/122/63 57/124/65 73/123/89 
f 74/125/90 73/123/89 57/124/65 
f 57/124/65 58/126/67 74/125/90 
f 75/127/91 74/125/90 58/126/67 
f 58/126/67 59/128/69 75/127/91 
f 76/129/92 75/127/91 59/128/69 
f 59/128/69 60/130/71 76/129/92 
f 77/131/93 76/129/92 60/130/71 
f 60/130/71 61/132/73 77/131/93 
f 78/133/94 77/131/93 61/132/73 
f 61/132/73 62/134/75 78/133/94 
f 79/135/95 78/133/94 62/134/75 
f 62/134/75 63/136/77 79/135/95 
f 80/137/96 79/135/95 63/136/77 
f 63/136/77 64/138/79 80/137/96 
f 66/108/82 80/137/96 64/138/79 
f 64/138/79 50/109/50 66/108/82 
f 66/108/82 65/107/81 72/121/88 
f 65/107/81 67/111/83 72/121/88 
f 67/111/83 68/113/84 72/121/88 
f 68/113/84 69/115/85 72/121/88 
f 69/115/85 70/117/86 72/121/88 
f 70/117/86 71/119/87 72/121/88 
f 73/123/89 74/125/90 72/121/88 
f 74/125/90 75/127/91 72/121/88 
f 75/127/91 76/129/92 72/121/88 
f 76/129/92 77/131/93 72/121/88 
f 77/131/93 78/133/94 72/121/88 
f 78/133/94 79/135/95 72/121/88 
f 79/135/95 80/137/96 72/121/88 
f 80/137/96 66/108/82 72/121/88 
# 0 polygons - 142 triangles

