# 3ds Max Wavefront OBJ Exporter v0.97b - (c)2007 guruware
# File Created: 23.02.2017 13:20:22

mtllib SM_Gnaling_controlpanel01.mtl

#
# object Gnaling_controlpanel01
#

v  0.1465 -0.2024 -0.0814
v  0.1465 0.2006 -0.0814
v  0.1465 0.2006 -0.0752
v  0.1465 -0.2024 -0.0752
v  0.1465 0.1934 -0.0592
v  0.1465 -0.1952 -0.0592
v  -0.1465 -0.2024 -0.0814
v  -0.1465 -0.2024 -0.0752
v  -0.1465 0.2006 -0.0752
v  -0.1465 0.2006 -0.0814
v  -0.1465 -0.1952 -0.0592
v  -0.1465 0.1934 -0.0592
v  0.1436 -0.2035 -0.0750
v  0.1434 -0.1952 -0.0592
v  -0.1436 -0.2032 -0.0750
v  -0.1434 -0.1952 -0.0592
v  0.1434 0.1934 -0.0592
v  -0.1434 0.1934 -0.0592
v  0.1434 0.2006 -0.0752
v  -0.1434 0.2006 -0.0752
v  -0.1397 0.2044 0.0367
v  -0.1439 0.2044 0.0308
v  -0.1439 -0.2044 0.0308
v  -0.1397 -0.2044 0.0367
v  -0.0601 0.2044 0.0706
v  -0.0601 -0.2044 0.0706
v  -0.0539 0.2044 0.0720
v  -0.0539 -0.2044 0.0720
v  0.1400 0.2044 0.0720
v  0.1400 -0.2044 0.0720
v  0.1438 0.2044 0.0693
v  0.1438 -0.2044 0.0693
v  0.1438 0.2044 -0.0748
v  -0.1439 0.2044 -0.0748
v  0.0470 0.1584 0.0719
v  0.0450 0.1626 0.0719
v  0.0450 0.1626 0.0781
v  0.0470 0.1584 0.0781
v  0.0405 0.1636 0.0719
v  0.0405 0.1636 0.0781
v  0.0370 0.1607 0.0719
v  0.0370 0.1607 0.0781
v  0.0370 0.1561 0.0719
v  0.0370 0.1561 0.0781
v  0.0405 0.1533 0.0719
v  0.0405 0.1533 0.0781
v  0.0450 0.1543 0.0719
v  0.0450 0.1543 0.0781
v  0.0441 0.1614 0.0814
v  0.0456 0.1584 0.0814
v  0.0409 0.1622 0.0814
v  0.0383 0.1601 0.0814
v  0.0383 0.1568 0.0814
v  0.0409 0.1547 0.0814
v  0.0441 0.1554 0.0814
v  0.0983 0.1584 0.0719
v  0.0963 0.1626 0.0719
v  0.0963 0.1626 0.0781
v  0.0983 0.1584 0.0781
v  0.0918 0.1636 0.0719
v  0.0918 0.1636 0.0781
v  0.0882 0.1607 0.0719
v  0.0882 0.1607 0.0781
v  0.0882 0.1561 0.0719
v  0.0882 0.1561 0.0781
v  0.0918 0.1533 0.0719
v  0.0918 0.1533 0.0781
v  0.0963 0.1543 0.0719
v  0.0963 0.1543 0.0781
v  0.0954 0.1614 0.0814
v  0.0968 0.1584 0.0814
v  0.0921 0.1622 0.0814
v  0.0895 0.1601 0.0814
v  0.0895 0.1568 0.0814
v  0.0921 0.1547 0.0814
v  0.0954 0.1554 0.0814
# 76 vertices

vn 1.0000 0.0000 -0.0000
vn -1.0000 0.0000 -0.0000
vn 0.3814 -0.9040 0.1930
vn 0.1513 -0.9878 0.0366
vn 0.1069 -0.9857 -0.1306
vn 0.0410 -0.8876 0.4587
vn 0.0000 -0.8853 0.4650
vn -0.0804 -0.9920 -0.0972
vn -0.1138 -0.9921 0.0535
vn -0.2861 -0.9371 0.1999
vn 0.0000 -0.8930 0.4500
vn -0.0303 -0.8949 0.4453
vn 0.0000 0.0000 1.0000
vn 0.0000 0.9136 0.4067
vn 0.0000 0.9782 0.2079
vn 0.0000 0.9904 0.1383
vn 0.0000 1.0000 -0.0000
vn -0.6298 0.0000 0.7768
vn -0.9538 0.0000 0.3005
vn -0.9538 -0.0003 0.3004
vn -0.3101 0.0000 0.9507
vn -0.1140 0.0000 0.9935
vn 0.3011 0.0000 0.9536
vn 0.5743 0.0000 0.8186
vn 1.0000 -0.0004 -0.0003
vn 1.0000 0.0000 -0.0013
vn 1.0000 -0.0001 -0.0010
vn 1.0000 -0.0005 -0.0000
vn -1.0000 -0.0001 -0.0004
vn -1.0000 -0.0007 -0.0027
vn 0.9008 0.4341 -0.0000
vn 0.8874 0.4276 0.1723
vn 0.8874 0.4275 0.1724
vn 0.2223 0.9750 -0.0000
vn 0.2190 0.9604 0.1725
vn 0.2191 0.9603 0.1726
vn -0.6233 0.7820 -0.0000
vn -0.6139 0.7703 0.1725
vn -0.6141 0.7702 0.1724
vn -0.9850 0.0000 0.1726
vn -0.6235 -0.7819 -0.0000
vn -0.6141 -0.7702 0.1721
vn -0.6142 -0.7701 0.1722
vn 0.2226 -0.9749 -0.0000
vn 0.2193 -0.9603 0.1723
vn 0.9008 -0.4342 -0.0000
vn 0.8873 -0.4277 0.1725
vn 0.8874 -0.4276 0.1724
vn 0.8406 0.4049 0.3599
vn 0.8406 0.4046 0.3601
vn 0.2076 0.9096 0.3600
vn 0.2077 0.9094 0.3602
vn -0.5818 0.7294 0.3598
vn -0.5821 0.7293 0.3594
vn -0.9329 0.0000 0.3602
vn -0.5819 -0.7295 0.3595
vn -0.5821 -0.7292 0.3597
vn 0.2077 -0.9097 0.3596
vn 0.2078 -0.9097 0.3595
vn 0.8406 -0.4049 0.3597
vn 0.8409 -0.4046 0.3593
vn 0.9011 0.4337 -0.0000
vn 0.8876 0.4272 0.1726
vn 0.8875 0.4273 0.1724
vn 0.2222 0.9750 -0.0000
vn 0.2189 0.9604 0.1724
vn 0.2190 0.9603 0.1725
vn -0.6140 0.7702 0.1725
vn -0.6141 -0.7702 0.1724
vn -0.6141 -0.7702 0.1723
vn 0.2225 -0.9749 -0.0000
vn 0.2192 -0.9603 0.1724
vn 0.2192 -0.9603 0.1723
vn 0.9010 -0.4338 -0.0000
vn 0.8875 -0.4273 0.1723
vn 0.8875 -0.4274 0.1724
vn 0.8405 0.4053 0.3594
vn 0.2079 0.9093 0.3604
vn -0.5816 0.7295 0.3600
vn -0.5817 0.7295 0.3599
vn -0.5817 -0.7295 0.3597
vn 0.2079 -0.9097 0.3594
vn 0.8404 -0.4051 0.3600
vn 0.0034 -1.0000 -0.0083
vn 0.0154 -0.9998 -0.0108
vn 0.0014 -1.0000 -0.0038
vn 0.0008 -1.0000 -0.0046
vn -0.0015 -1.0000 -0.0057
vn -0.0041 -1.0000 -0.0058
# 89 vertex normals

vt 0.0022 0.7469 0.0000
vt 0.0022 0.0078 0.0000
vt 0.0131 0.0101 0.0000
vt 0.0131 0.7446 0.0000
vt 0.0423 0.0231 0.0000
vt 0.0423 0.7315 0.0000
vt 0.2445 0.9996 0.0000
vt 0.2468 0.9887 0.0000
vt 0.9812 0.9887 0.0000
vt 0.9835 0.9996 0.0000
vt 0.2598 0.9595 0.0000
vt 0.9682 0.9595 0.0000
vt 0.0154 0.7498 0.0000
vt 0.0447 0.7368 0.0000
vt 0.2415 0.9864 0.0000
vt 0.2545 0.9571 0.0000
vt 0.0481 0.7315 0.0000
vt 0.0481 0.0231 0.0000
vt 0.2598 0.9537 0.0000
vt 0.9682 0.9537 0.0000
vt 0.0447 0.0179 0.0000
vt 0.0154 0.0049 0.0000
vt 0.9734 0.9571 0.0000
vt 0.9865 0.9864 0.0000
vt 0.0504 0.4295 0.0000
vt 0.0504 0.0090 0.0000
vt 0.0595 0.0044 0.0000
vt 0.0595 0.4342 0.0000
vt 0.0597 0.4376 0.0000
vt 0.0597 0.8673 0.0000
vt 0.0505 0.8626 0.0000
vt 0.0505 0.4422 0.0000
vt 0.2546 0.7105 0.0000
vt 0.2443 0.7105 0.0000
vt 0.2443 0.0042 0.0000
vt 0.2546 0.0042 0.0000
vt 0.3921 0.7105 0.0000
vt 0.3921 0.0042 0.0000
vt 0.4028 0.7105 0.0000
vt 0.4028 0.0042 0.0000
vt 0.7379 0.7105 0.0000
vt 0.7379 0.0042 0.0000
vt 0.7445 0.7105 0.0000
vt 0.7445 0.0042 0.0000
vt 0.9936 0.0042 0.0000
vt 0.9936 0.7105 0.0000
vt 0.0619 0.7105 0.0000
vt 0.0619 0.0042 0.0000
vt 0.0435 0.8490 0.0000
vt 0.0435 0.8579 0.0000
vt 0.0302 0.8579 0.0000
vt 0.0302 0.8490 0.0000
vt 0.0435 0.8674 0.0000
vt 0.0302 0.8674 0.0000
vt 0.0435 0.8751 0.0000
vt 0.0302 0.8751 0.0000
vt 0.0435 0.8855 0.0000
vt 0.0302 0.8855 0.0000
vt 0.0435 0.8932 0.0000
vt 0.0302 0.8932 0.0000
vt 0.0435 0.8307 0.0000
vt 0.0435 0.8402 0.0000
vt 0.0302 0.8402 0.0000
vt 0.0302 0.8307 0.0000
vt 0.0229 0.8579 0.0000
vt 0.0229 0.8490 0.0000
vt 0.0229 0.8675 0.0000
vt 0.0229 0.8750 0.0000
vt 0.0229 0.8855 0.0000
vt 0.0229 0.8932 0.0000
vt 0.0229 0.8402 0.0000
vt 0.0229 0.8307 0.0000
vt 0.0173 0.8632 0.0000
vt 0.0173 0.8793 0.0000
vt 0.0102 0.8777 0.0000
vt 0.0071 0.8712 0.0000
vt 0.0102 0.8648 0.0000
vt 0.0444 0.9149 0.0000
vt 0.0444 0.9237 0.0000
vt 0.0310 0.9237 0.0000
vt 0.0310 0.9149 0.0000
vt 0.0444 0.9333 0.0000
vt 0.0310 0.9333 0.0000
vt 0.0444 0.9410 0.0000
vt 0.0310 0.9410 0.0000
vt 0.0444 0.9514 0.0000
vt 0.0310 0.9514 0.0000
vt 0.0444 0.9591 0.0000
vt 0.0310 0.9591 0.0000
vt 0.0444 0.8965 0.0000
vt 0.0444 0.9061 0.0000
vt 0.0310 0.9061 0.0000
vt 0.0310 0.8965 0.0000
vt 0.0237 0.9237 0.0000
vt 0.0237 0.9149 0.0000
vt 0.0237 0.9334 0.0000
vt 0.0237 0.9408 0.0000
vt 0.0237 0.9514 0.0000
vt 0.0237 0.9591 0.0000
vt 0.0237 0.9061 0.0000
vt 0.0237 0.8965 0.0000
vt 0.0181 0.9290 0.0000
vt 0.0181 0.9452 0.0000
vt 0.0111 0.9436 0.0000
vt 0.0080 0.9371 0.0000
vt 0.0111 0.9306 0.0000
vt 0.9913 0.7705 0.0000
vt 0.9981 0.7801 0.0000
vt 0.9981 0.9515 0.0000
vt 0.5312 0.9515 0.0000
vt 0.8621 0.7155 0.0000
vt 0.8521 0.7132 0.0000
vt 0.5374 0.7132 0.0000
vt 0.5312 0.7175 0.0000
vt 0.5281 0.7166 0.0000
vt 0.5281 0.9505 0.0000
vt 0.5220 0.7122 0.0000
vt 0.2072 0.7122 0.0000
vt 0.1972 0.7145 0.0000
vt 0.0680 0.7695 0.0000
vt 0.0612 0.7792 0.0000
vt 0.0612 0.9505 0.0000
# 122 texture coords

g Gnaling_controlpanel01
usemtl default
s 1
f 1/1/1 2/2/1 3/3/1 
f 3/3/1 4/4/1 1/1/1 
f 4/4/1 3/3/1 5/5/1 
f 5/5/1 6/6/1 4/4/1 
f 7/7/2 8/8/2 9/9/2 
f 9/9/2 10/10/2 7/7/2 
f 8/8/2 11/11/2 12/12/2 
f 12/12/2 9/9/2 8/8/2 
s 2
f 4/4/3 13/13/4 1/1/5 
f 13/13/4 4/4/3 6/6/6 
f 6/6/6 14/14/7 13/13/4 
f 7/7/8 15/15/9 8/8/10 
f 15/15/9 16/16/11 11/11/12 
f 11/11/12 8/8/10 15/15/9 
s 4
f 14/17/13 6/6/13 5/5/13 
f 5/5/13 17/18/13 14/17/13 
f 16/19/13 18/20/13 12/12/13 
f 12/12/13 11/11/13 16/19/13 
s 2
f 17/21/14 5/5/14 3/3/15 
f 3/3/15 19/22/16 17/21/14 
f 2/2/17 19/22/16 3/3/15 
f 18/23/14 20/24/16 9/9/15 
f 9/9/15 12/12/14 18/23/14 
f 9/9/15 20/24/16 10/10/17 
f 20/25/16 19/26/16 2/27/17 
f 2/27/17 10/28/17 20/25/16 
f 7/29/8 1/30/5 13/31/4 
f 13/31/4 15/32/9 7/29/8 
s 1
f 21/33/18 22/34/19 23/35/20 
f 23/35/20 24/36/18 21/33/18 
f 25/37/21 21/33/18 24/36/18 
f 24/36/18 26/38/21 25/37/21 
f 27/39/22 25/37/21 26/38/21 
f 26/38/21 28/40/22 27/39/22 
f 29/41/23 27/39/22 28/40/22 
f 28/40/22 30/42/23 29/41/23 
f 31/43/24 29/41/23 30/42/23 
f 30/42/23 32/44/24 31/43/24 
s 4
f 31/43/25 32/44/26 13/45/27 
f 13/45/27 33/46/28 31/43/25 
s 1
f 23/35/20 22/34/19 34/47/29 
f 34/47/29 15/48/30 23/35/20 
f 35/49/31 36/50/31 37/51/32 
f 37/51/32 38/52/33 35/49/31 
s 2
f 36/50/34 39/53/34 40/54/35 
f 40/54/35 37/51/36 36/50/34 
s 1
f 39/53/37 41/55/37 42/56/38 
f 42/56/38 40/54/39 39/53/37 
s 2
f 41/55/2 43/57/2 44/58/40 
f 44/58/40 42/56/40 41/55/2 
s 1
f 43/57/41 45/59/41 46/60/42 
f 46/60/42 44/58/43 43/57/41 
s 2
f 45/61/44 47/62/44 48/63/45 
f 48/63/45 46/64/45 45/61/44 
s 4
f 47/62/46 35/49/46 38/52/47 
f 38/52/47 48/63/48 47/62/46 
s 1
f 38/52/33 37/51/32 49/65/49 
f 49/65/49 50/66/50 38/52/33 
s 2
f 37/51/36 40/54/35 51/67/51 
f 51/67/51 49/65/52 37/51/36 
s 1
f 40/54/39 42/56/38 52/68/53 
f 52/68/53 51/67/54 40/54/39 
s 2
f 42/56/40 44/58/40 53/69/55 
f 53/69/55 52/68/55 42/56/40 
s 1
f 44/58/43 46/60/42 54/70/56 
f 54/70/56 53/69/57 44/58/43 
s 2
f 46/64/45 48/63/45 55/71/58 
f 55/71/58 54/72/59 46/64/45 
s 4
f 48/63/48 38/52/47 50/66/60 
f 50/66/60 55/71/61 48/63/48 
s 8
f 49/73/13 51/67/13 52/68/13 
f 52/68/13 53/74/13 54/75/13 
f 52/68/13 54/75/13 55/76/13 
f 49/73/13 52/68/13 55/76/13 
f 49/73/13 55/76/13 50/77/13 
s 1
f 56/78/62 57/79/62 58/80/63 
f 58/80/63 59/81/64 56/78/62 
s 2
f 57/79/65 60/82/65 61/83/66 
f 61/83/66 58/80/67 57/79/65 
s 1
f 60/82/37 62/84/37 63/85/38 
f 63/85/38 61/83/68 60/82/37 
s 2
f 62/84/2 64/86/2 65/87/40 
f 65/87/40 63/85/40 62/84/2 
s 1
f 64/86/41 66/88/41 67/89/69 
f 67/89/69 65/87/70 64/86/41 
s 2
f 66/90/71 68/91/71 69/92/72 
f 69/92/72 67/93/73 66/90/71 
s 4
f 68/91/74 56/78/74 59/81/75 
f 59/81/75 69/92/76 68/91/74 
s 1
f 59/81/64 58/80/63 70/94/49 
f 70/94/49 71/95/77 59/81/64 
s 2
f 58/80/67 61/83/66 72/96/51 
f 72/96/51 70/94/78 58/80/67 
s 1
f 61/83/68 63/85/38 73/97/79 
f 73/97/79 72/96/80 61/83/68 
s 2
f 63/85/40 65/87/40 74/98/55 
f 74/98/55 73/97/55 63/85/40 
s 1
f 65/87/70 67/89/69 75/99/81 
f 75/99/81 74/98/81 65/87/70 
s 2
f 67/93/73 69/92/72 76/100/58 
f 76/100/58 75/101/82 67/93/73 
s 4
f 69/92/76 59/81/75 71/95/60 
f 71/95/60 76/100/83 69/92/76 
s 8
f 70/102/13 72/96/13 73/97/13 
f 73/97/13 74/103/13 75/104/13 
f 73/97/13 75/104/13 76/105/13 
f 70/102/13 73/97/13 76/105/13 
f 70/102/13 76/105/13 71/106/13 
s 2
f 24/107/84 23/108/85 15/109/9 
f 15/109/9 13/110/4 24/107/84 
f 24/107/84 13/110/4 26/111/86 
f 26/111/86 13/110/4 28/112/87 
f 28/112/87 13/110/4 30/113/88 
f 30/113/88 13/110/4 32/114/89 
f 31/115/17 33/116/17 29/117/17 
f 29/117/17 33/116/17 27/118/17 
f 27/118/17 33/116/17 25/119/17 
f 25/119/17 33/116/17 21/120/17 
f 22/121/17 21/120/17 33/116/17 
f 33/116/17 34/122/17 22/121/17 
# 0 polygons - 120 triangles

