# 3ds Max Wavefront OBJ Exporter v0.97b - (c)2007 guruware
# File Created: 23.02.2017 13:21:20

mtllib SM_Lightswitch01.mtl

#
# object UnrealEdObject
#

v  -0.0634 -0.0662 0.0067
v  -0.0634 -0.0633 0.0097
v  -0.0662 -0.0633 0.0067
v  0.0634 -0.0633 0.0097
v  0.0634 -0.0662 0.0067
v  0.0662 -0.0633 0.0067
v  -0.0634 0.0633 0.0097
v  -0.0662 0.0633 0.0067
v  0.0634 0.0633 0.0097
v  0.0662 0.0633 0.0067
v  -0.0634 0.0662 0.0067
v  0.0634 0.0662 0.0067
v  -0.0634 -0.0662 -0.0042
v  -0.0662 -0.0633 -0.0042
v  0.0634 -0.0662 -0.0042
v  0.0662 -0.0633 -0.0042
v  0.0662 0.0633 -0.0042
v  0.0634 0.0662 -0.0042
v  -0.0634 0.0662 -0.0042
v  -0.0662 0.0633 -0.0042
# 20 vertices

vn -0.5881 -0.5867 0.5568
vn 0.0000 -0.7254 0.6884
vn 0.5881 -0.5867 0.5568
vn -0.7262 0.0000 0.6875
vn 0.0000 0.0000 1.0000
vn 0.7262 0.0000 0.6875
vn -0.5881 0.5867 0.5568
vn 0.0000 0.7254 0.6884
vn 0.5881 0.5867 0.5568
vn -0.7079 -0.7063 -0.0000
vn 0.0000 -1.0000 -0.0000
vn 0.7079 -0.7063 -0.0000
vn 1.0000 0.0000 -0.0000
vn 0.7079 0.7063 -0.0000
vn 0.0000 1.0000 -0.0000
vn -0.7079 0.7063 -0.0000
vn -1.0000 0.0000 -0.0000
# 17 vertex normals

vt 0.0945 0.0753 0.0000
vt 0.0973 0.1001 0.0000
vt 0.0725 0.0974 0.0000
vt 0.9010 0.1001 0.0000
vt 0.9038 0.0753 0.0000
vt 0.9258 0.0974 0.0000
vt 0.0973 0.9037 0.0000
vt 0.0725 0.9064 0.0000
vt 0.9010 0.9037 0.0000
vt 0.9258 0.9065 0.0000
vt 0.0945 0.9286 0.0000
vt 0.9038 0.9286 0.0000
vt 0.0029 0.0729 0.0000
vt 0.0720 0.0715 0.0000
vt 0.0034 0.0989 0.0000
vt 0.0959 0.0062 0.0000
vt 0.9024 0.0062 0.0000
vt 0.9954 0.0728 0.0000
vt 0.9949 0.0987 0.0000
vt 0.9263 0.0714 0.0000
vt 0.9949 0.9051 0.0000
vt 0.9954 0.9311 0.0000
vt 0.9263 0.9325 0.0000
vt 0.9024 0.9977 0.0000
vt 0.0959 0.9977 0.0000
vt 0.0034 0.9320 0.0000
vt 0.0034 0.9057 0.0000
vt 0.0725 0.9320 0.0000
# 28 texture coords

g UnrealEdObject
usemtl default
s off
f 1/1/1 2/2/1 3/3/1 
f 4/4/2 2/2/2 1/1/2 
f 1/1/2 5/5/2 4/4/2 
f 5/5/3 6/6/3 4/4/3 
f 7/7/4 8/8/4 3/3/4 
f 3/3/4 2/2/4 7/7/4 
f 9/9/5 7/7/5 2/2/5 
f 2/2/5 4/4/5 9/9/5 
f 10/10/6 9/9/6 4/4/6 
f 4/4/6 6/6/6 10/10/6 
f 8/8/7 7/7/7 11/11/7 
f 12/12/8 11/11/8 7/7/8 
f 7/7/8 9/9/8 12/12/8 
f 9/9/9 10/10/9 12/12/9 
f 13/13/10 1/14/10 3/3/10 
f 3/3/10 14/15/10 13/13/10 
f 5/5/11 1/1/11 13/16/11 
f 13/16/11 15/17/11 5/5/11 
f 15/18/12 16/19/12 6/6/12 
f 6/6/12 5/20/12 15/18/12 
f 10/10/13 6/6/13 16/19/13 
f 16/19/13 17/21/13 10/10/13 
f 17/21/14 18/22/14 12/23/14 
f 12/23/14 10/10/14 17/21/14 
f 11/11/15 12/12/15 18/24/15 
f 18/24/15 19/25/15 11/11/15 
f 19/26/16 20/27/16 8/8/16 
f 8/8/16 11/28/16 19/26/16 
f 3/3/17 8/8/17 20/27/17 
f 20/27/17 14/15/17 3/3/17 
# 0 polygons - 30 triangles

