# 3ds Max Wavefront OBJ Exporter v0.97b - (c)2007 guruware
# File Created: 23.02.2017 13:22:15

mtllib SM_MatMouse01.mtl

#
# object MatMouse01
#

v  -0.2226 0.0000 -0.1771
v  -0.2226 0.0000 0.1826
v  0.2121 0.0000 0.1826
v  0.2121 0.0000 -0.1771
# 4 vertices

vn 0.0000 1.0000 -0.0000
# 1 vertex normals

vt 0.0000 1.0000 0.0000
vt 0.0000 0.0000 0.0000
vt 1.0000 0.0000 0.0000
vt 1.0000 1.0000 0.0000
# 4 texture coords

g MatMouse01
usemtl Material__25
s 1
f 1/1/1 2/2/1 3/3/1 4/4/1 
# 1 polygons

